<?xml version="1.0" standalone="no"?>
<!DOCTYPE svg PUBLIC "-//W3C//DTD SVG 1.1//EN" "http://www.w3.org/Graphics/SVG/1.1/DTD/svg11.dtd">
<svg xmlns="http://www.w3.org/2000/svg">
<defs >
<font id="IndieFlower" horiz-adv-x="473" ><font-face
    font-family="Indie Flower"
    units-per-em="1024"
    panose-1="2 0 0 0 0 0 0 0 0 0"
    ascent="994"
    descent="-500"
    alphabetic="0" />
<glyph unicode=" " glyph-name="space" horiz-adv-x="384" />
<glyph unicode="!" glyph-name="exclam" horiz-adv-x="153" d="M16 49Q16 79 38 92Q62 106 92 106Q102 106 110 100T124 86T132 68T135 49Q135 38 127 29T108 13T84 3T62 -1Q37 -1 27 12T16 49ZM47 274Q43 300 42 344T40 442T39 554T40 666T40 764Q40 810 38 836L87
844L88 826Q88 808 88 779T89 712T91 633T92 551T93 473T94 410T96 370Q96 368 96 363T96 350T97 335T97 324Q97 316 97 306T97 285T90 269T73 262Q66 262 58 263T47 274Z" />
<glyph unicode="&quot;" glyph-name="quotedbl" horiz-adv-x="240" d="M154 548Q152 582 150 610T147 663T146 714T145 768V806Q146 808 150 812Q152 815 154 817H157Q158 817 158 817T159 818Q172 818 181 799T196 752T205 691T210 628T212 577T212 552V518Q210
515 203 508Q196 502 193 500L190 499H188Q181 499 176 506T165 522T157 538T154 548ZM10 778Q13 786 18 787T30 788Q40 788 48 774T63 736T76 684T89 628T102 576T116 538Q110 526 104 522T87 518Q73 518 62 534T43 575T28 631T18 690T13 743T10 778Z" />
<glyph unicode="#" glyph-name="numbersign" horiz-adv-x="787" d="M394 154V68Q394 66 390 63T385 58Q382 56 375 53T365 49Q353 49 348 56T341 74T338 97T337 120T332 138T318 146Q316 146 313 146T308 145Q304 144 289 142T254 137T212 131T170 124T136 119T116
116H110Q100 116 93 125T86 145Q86 147 86 150T87 154Q137 165 183 174T279 192Q283 193 289 194T302 197T312 200T317 202V268L308 279Q307 279 304 279T296 280T287 280T280 280Q247 280 214 271T150 250T89 229T34 220Q23 220 16 224T9 242Q9 261 31 274T86
297T158 314T230 326T286 336T308 346V480Q308 484 312 488T321 496T333 502T344 504Q344 488 346 470T351 434T358 398T365 364Q381 358 392 356T419 354Q424 354 431 356T445 362T457 372T462 383Q462 393 459 402T452 422T445 442Q442 450 442 460Q442 474 449
487T471 500Q473 500 476 500T481 500Q482 492 486 472T496 430T508 392T519 375H682Q683 375 687 371T698 360T710 348T721 337V334Q721 332 721 332T722 331Q722 327 719 323T710 316T700 310T692 308Q691 308 689 309T683 312T677 315T673 317Q671 317 665 318T652
321T636 324T625 326H620H615Q605 324 590 323T562 320Q546 318 529 317V250L538 241Q558 244 574 246T603 249T631 250T664 250Q680 250 697 250T728 247T751 233T760 200Q760 183 740 183H730Q726 183 714 184T687 187T659 190T644 192H639Q631 192 616 189T584
182T554 175Q540 172 538 172Q538 170 538 166T538 156T538 146T537 139Q537 115 542 93T548 46Q548 44 548 44T548 41V38Q546 36 541 31T530 20T518 8T509 0L507 -1H505Q500 -1 496 10T489 39T484 77T480 116T476 147T471 164L461 172L394 154ZM375 268Q375 265
376 257T378 240T381 223T385 212L471 230Q471 234 472 238Q473 242 473 245T473 250Q473 252 473 257T472 266T472 274T471 279Q470 283 467 290T461 298H394Q393 298 390 294T385 288Q383 285 379 278T375 268Z" />
<glyph unicode="$" glyph-name="dollar" horiz-adv-x="595" d="M292 110Q290 106 288 89T282 55T273 23T260 8Q239 8 232 23T224 59T224 99T221 125Q215 135 197 148T153 176T102 206T54 238T19 269T10 298Q13 310 21 314T39 318Q60 318 79 300T118 260T158 220T202
202Q216 202 225 219T240 264T251 324T257 389T259 446T260 484Q260 486 260 491T260 501T260 512T260 518Q246 536 227 550T192 580T165 613T153 658Q153 661 153 670T154 682Q178 717 213 741T289 778Q291 798 291 824T297 875T313 921T346 951Q346 935 350 922Q354
909 356 893Q356 892 354 889T351 883T348 877L346 874Q346 873 346 869T346 860T346 849T345 840Q345 838 345 834T346 824T346 813T346 806Q359 799 367 798T389 796Q391 796 397 796T404 797Q404 811 404 832T406 872T420 905Q430 919 452 919V768Q455 761 462
757T478 749T492 741T499 730Q499 726 493 721T479 711T460 703T442 701Q438 661 430 626T422 552Q422 550 422 544T422 531T422 518T423 509Q444 483 470 461T520 415T560 361T577 292Q577 187 522 131T365 68Q367 58 367 46T364 24T352 6T332 -1Q330 -1 325 -1T317
0Q314 28 311 52Q307 72 303 89T292 110ZM375 134Q377 132 384 129T394 125H398Q430 125 453 139T491 176T513 226T520 280Q520 336 494 373T423 442Q410 435 402 418T388 376T379 325T375 272T374 224Q374 202 374 188Q374 185 374 178T374 161T375 145T375 134ZM350
477Q352 480 349 482T340 484T331 483T327 480Q323 457 315 424T299 356T284 287T277 227T283 186T308 175Q308 177 311 198T319 252T329 321T339 390T347 444T350 468V477ZM326 584Q326 576 326 565T326 543T333 523T346 509Q360 519 370 536T385 573T392 617T394
661T394 702Q394 722 394 734Q392 734 386 734T371 732T357 731T346 730Q344 730 341 726T337 721Q333 699 331 682T328 650T326 619T326 584ZM211 641Q211 633 211 627T215 615T224 605T241 596L244 594Q246 591 249 589T256 585T261 585Q269 590 272 600T277
622T279 647Q279 660 279 668Q279 672 277 677T272 688T264 697T255 701Q243 701 235 696T221 681T214 662T211 641Z" />
<glyph unicode="%" glyph-name="percent" horiz-adv-x="652" d="M145 29Q145 48 160 84T201 165T259 262T328 365T398 463T461 546T511 603T538 625Q542 625 545 621T548 612T548 602Q548 598 548 596Q524 556 497 524T443 459T391 390T346 308Q340 298 327 271T296
210T258 139T220 70T186 19Q172 -1 164 -1Q152 -1 149 9T145 29ZM364 100Q364 118 369 141T385 186T410 231T441 270T478 297T519 308Q541 308 560 296T594 266T617 225T626 182Q626 153 612 122T576 66T525 24T466 8Q444 8 426 14T394 31T372 59T364 100ZM413
76Q421 68 430 67T452 66Q474 66 494 74T531 98T558 133Q568 154 568 176Q568 186 565 198T556 222T541 242T519 250Q497 250 477 234T443 194T420 144T412 100Q412 97 412 89T413 76ZM9 413Q9 438 18 464T45 510T84 544Q108 557 134 557Q157 557 181 548T225 522T257
483T270 434Q270 407 259 382T229 338T186 308T135 296Q113 296 91 305T50 331T21 368T9 413ZM67 418Q67 409 68 398T75 376T87 357T106 346Q120 342 140 347T178 363T208 389T221 422Q221 437 214 451T195 476T169 493T140 500Q124 500 110 492T87 472T72 446T67
418Z" />
<glyph unicode="&amp;" glyph-name="ampersand" horiz-adv-x="468" d="M10 76Q10 127 28 170T69 254T114 335T145 422Q145 424 145 433T145 451T145 469T145 480Q145 490 146 516T149 571T152 626T154 663Q154 667 156 674T162 689T171 703T183 710Q207 714 224
704T251 677T266 640Q270 620 270 602Q270 570 266 545T253 496T232 448T202 394Q202 392 202 389T201 384Q201 368 205 351T217 316T233 281T250 250H269Q279 255 286 266T297 293T304 325T307 357T308 385T308 404Q313 410 322 412T341 415T359 415T374 414Q386
414 399 416T423 419T441 411T448 385Q448 375 445 371T428 365Q423 364 415 363T400 362T384 360T371 360Q357 331 352 308T342 264T331 224T308 183Q308 180 308 178Q307 176 307 172Q307 158 318 138T343 96T373 55T394 26Q390 16 382 16Q374 14 364 16L279
116H277H275H274Q263 116 253 108T233 86T212 57T185 29T152 7T110 -2Q108 -2 102 -2T89 -2T76 -1T68 0Q60 6 50 15T31 34T16 55T10 76ZM67 96Q67 91 70 83T79 66T91 53T106 49Q120 51 142 65T183 98T217 137T232 172Q232 187 225 204T208 238T188 274T173 308Q161
306 149 291T124 254T102 207T84 158T72 118T67 96Z" />
<glyph unicode="&apos;" glyph-name="quotesingle" horiz-adv-x="105" d="M20 712Q20 718 20 722T22 730T28 738T38 748Q49 742 57 727T71 693T80 650T85 604T87 562T88 531Q88 517 86 508Q84 499 68 499Q55 499 47 514T33 551T25 601T21 652T20 692T20 712Z" />
<glyph unicode="(" glyph-name="parenleft" horiz-adv-x="432" d="M20 196Q20 228 35 271T76 358T136 445T207 521T282 576Q322 596 356 596Q365 596 375 592T393 581T408 566T414 548Q414 540 411 529T398 518Q391 518 386 521T376 528T365 535T352 538Q318 538
284 520T219 472T162 404T117 325T87 246T76 177Q76 129 92 99T137 50T201 24T279 10Q287 7 288 2T289 -9Q289 -23 279 -29T255 -38T228 -40T207 -39Q160 -39 125 -18T66 36T32 112T20 196Z" />
<glyph unicode=")" glyph-name="parenright" horiz-adv-x="297" d="M9 -20Q9 -12 24 4T64 43T115 96T166 159T206 230T222 308Q222 346 211 380T182 445T139 504T87 556Q80 552 73 554T61 561T51 572T47 586Q47 601 56 603T78 606Q108 606 134 592T183 553T224
498T254 435T273 372T280 317Q280 293 269 256T239 178T196 94T144 18T88 -37T34 -58Q28 -58 24 -54T16 -44T11 -31T9 -20Z" />
<glyph unicode="*" glyph-name="asterisk" horiz-adv-x="422" d="M183 404Q182 404 180 402T174 396T168 390Q166 386 164 384Q160 380 152 368T134 342T117 316T106 298Q104 296 100 295T92 292T83 289Q78 288 76 288Q72 288 70 291T67 298T66 306T66 312Q66
326 70 338T78 361T87 384T92 410Q82 410 76 409T66 406T56 404T42 403Q38 403 33 403T25 405T19 411Q18 415 20 422Q22 431 30 438T50 451T73 458T92 461Q100 461 103 458T108 451T112 444T120 441H123Q124 441 125 442Q127 444 130 447T134 452Q134 470 120 485T88
515T58 542T49 567Q50 569 57 576T68 586H70H71H72Q72 585 73 586H74H76L172 529Q170 534 170 542T173 559T179 572T193 578Q195 578 198 578T202 576L230 529Q244 538 262 553T300 583T341 610T384 625Q390 617 392 611T394 596Q394 586 379 573T344 546T305 520T279
500Q287 501 301 501T329 500T354 494T364 480Q364 466 355 461T336 451T316 442T307 423Q307 408 314 394T330 365T350 336Q358 322 364 308Q362 295 353 287T331 279H326Q324 281 319 284T308 292T296 301Q290 306 288 308Q290 286 281 264T250 230Q245 237 241
252T233 288T225 330T214 369T201 396T183 404Z" />
<glyph unicode="+" glyph-name="plus" horiz-adv-x="471" d="M183 192Q163 192 144 189T105 182T67 175T29 172Q14 172 11 180Q8 186 8 196Q8 209 11 213T29 221Q37 223 57 227T101 235T144 244T173 250Q178 251 180 255T183 265T184 275T184 283Q184 299 181
314T174 346T167 378Q164 394 164 410V413Q166 416 173 423T183 433H185Q186 433 186 434H188Q189 434 189 434Q188 433 190 433H193L212 413L250 279L260 268L276 266Q293 263 316 260T363 254T404 250Q407 250 415 249T431 247T446 241T452 230Q452 227 448 221T440
208T430 197T423 192H269V20L266 17Q262 14 258 11T249 5T241 0Q240 -1 238 -1H236Q225 -1 220 9T213 33T212 58Q213 70 212 76Q211 83 209 99T203 134T197 169T193 192H183Z" />
<glyph unicode="," glyph-name="comma" horiz-adv-x="134" d="M9 -158Q9 -134 14 -110T24 -61T35 -11T40 38Q40 40 40 46T40 58T39 69T39 76Q25 75 22 81T19 95Q19 115 26 130T55 146Q75 146 83 132T95 99T99 61T98 29Q98 21 96 2T90 -43T80 -95T66 -144T49 -180T29
-194Q22 -194 18 -191T12 -182T10 -170T9 -158Z" />
<glyph unicode="-" glyph-name="hyphen" horiz-adv-x="384" d="M254 327Q268 327 284 327T314 321T337 307T346 279Q346 258 327 258Q305 258 287 263T245 269Q216 269 188 266T130 258T73 251T15 247Q15 271 26 285T55 307T95 319T142 322T189 323T230 326Q230
326 233 326Q236 326 240 326T248 327T254 327Z" />
<glyph unicode="." glyph-name="period" horiz-adv-x="209" d="M45 96Q45 104 51 120T67 152T85 181T102 193Q122 193 137 183T161 156T176 121T181 86Q181 74 174 59T157 31T133 9T107 0Q92 0 81 10T62 36T49 68T45 96Z" />
<glyph unicode="/" glyph-name="slash" horiz-adv-x="317" d="M10 34Q10 48 16 68T32 111T52 152T68 183L231 634Q234 648 237 669T245 710T258 747T279 768Q288 766 292 761T297 749T299 735T298 722Q298 707 289 668T265 575T229 458T186 330T141 207T99 102T63
28T39 0Q26 0 18 12T10 34Z" />
<glyph unicode="0" glyph-name="zero" horiz-adv-x="441" d="M19 223Q19 257 37 295T85 366T152 420T226 442Q249 442 271 432T315 404T354 364T385 317T406 268T414 222Q414 184 403 145T370 74T315 20T238 -1Q192 -1 152 16T82 64T36 136T19 223ZM68 230Q64
195 74 164T105 109T157 71T222 57Q235 57 244 58T263 63T283 73T308 87Q310 101 317 111T333 134T349 162T356 203Q356 236 346 267T315 322T266 360T200 375Q174 375 151 362T111 327T82 280T68 230Z" />
<glyph unicode="1" glyph-name="one" horiz-adv-x="326" d="M183 20Q183 22 183 26T183 36T182 47T182 53Q182 63 183 82T186 124T190 174T194 223T197 265T198 295Q198 301 198 307T197 318T191 328Q186 332 178 334Q174 330 164 319T142 292T115 261T87 231T60
208T38 199Q14 199 14 224V230Q16 232 18 236T24 244T29 252T34 258L217 450Q225 458 230 473T238 505T245 540T252 572T264 595T283 604Q289 604 294 603T302 595Q302 593 302 588T302 578T303 567T303 561Q303 557 301 531T294 464T283 374T270 272T255 171T240
84T225 23T212 -1Q202 -1 196 3T183 20Z" />
<glyph unicode="2" glyph-name="two" horiz-adv-x="509" d="M280 30Q244 30 211 25T140 19Q120 19 99 23T59 38T27 65T10 106Q8 121 14 130T31 145T55 152T77 154Q100 154 122 147T166 131T210 114T256 106Q277 106 295 120T327 156T353 207T371 263T382 313T386
350Q386 364 382 391T369 444T346 489T308 509Q287 509 277 494T260 461T249 425T231 404Q216 414 214 430T211 460Q211 480 218 497T240 528T273 549T313 556Q348 556 373 535T413 483T436 417T444 356T443 310T437 271T424 232T404 183Q397 178 387 167T368 142T353
117T346 96Q346 86 356 81T382 72T414 67T446 62T471 51T482 29Q482 19 472 10Q464 0 452 0Q430 0 409 4T366 14T323 25T280 30Z" />
<glyph unicode="3" glyph-name="three" horiz-adv-x="441" d="M20 125Q19 127 19 128V134Q19 151 28 162T55 173Q62 173 76 155T115 115T174 75T256 57Q274 57 292 59T324 69T347 88T356 119Q356 161 335 188T282 232T211 259T141 276T88 291T66 312Q66 314 67
315T68 317Q70 320 77 327T87 337Q97 339 117 342T160 351T208 365T252 383T285 408T298 442Q298 457 286 466T259 481T227 488T200 490T171 490T134 487T101 481T87 471V449Q64 449 51 460T38 494Q38 504 43 512T58 526T77 535T96 538H241Q264 538 283 528T317
501T338 463T346 421Q346 400 333 386T303 361T272 339T258 312Q258 311 259 310L260 308Q291 297 318 278T367 234T402 179Q414 150 414 116Q414 85 401 63T366 27T318 6T265 -1Q240 1 218 3T168 17T106 54T20 125Z" />
<glyph unicode="4" glyph-name="four" horiz-adv-x="422" d="M303 222Q289 214 272 203T235 181T197 166T158 164Q119 164 93 185T50 239T26 308T19 374Q19 407 22 433T31 484T47 535T68 596Q70 606 79 611T99 616T119 613T126 600Q126 574 117 547T96 493T76
437T66 379Q66 358 71 333T88 287T118 252T161 238Q195 238 222 254T272 295T311 349T339 403T357 444Q362 460 364 460Q388 460 396 452Q403 444 403 430Q403 410 399 385T388 334T378 283T374 236Q374 212 377 188T384 140T391 93T394 46Q394 26 382 12T350 -2Q337
-2 332 14T324 56T321 110T321 164T316 205T303 222Z" />
<glyph unicode="5" glyph-name="five" horiz-adv-x="585" d="M19 145Q17 173 25 191T42 211T58 193T62 125Q62 115 75 107T108 92T152 81T197 73T234 68T254 66Q287 66 321 72T382 93T427 134T444 198Q444 240 429 269T389 317T332 347T266 364T197 375T134 384Q128
392 126 398T124 413Q124 415 124 418L125 422Q129 430 140 450T164 494T187 538T202 567Q203 568 204 571T207 579T210 588Q212 594 212 596T212 601T211 605H188Q188 625 199 637T227 657T266 668T310 673T351 674T384 673Q404 673 428 674T476 673T521 661T556
634Q556 633 556 632T557 629Q557 625 554 621T546 613T537 608T529 605Q527 605 518 606T500 609T482 612T471 614Q469 614 456 614T426 615T394 616T369 616Q362 616 351 616T329 616T308 615T298 614L268 605Q265 588 256 568T237 526T219 486T211 452Q211 450
212 446V442Q267 433 318 414T411 364T476 288T500 178Q504 140 487 109T440 54T373 16T303 0Q280 0 250 1T188 7T126 21T72 47T34 87T19 145Z" />
<glyph unicode="6" glyph-name="six" horiz-adv-x="451" d="M19 212Q19 251 31 295T66 383T119 466T186 537T263 589T346 614Q356 615 369 613T394 604T414 589T423 567Q423 561 422 555T417 542T410 531T398 526Q396 526 389 530T374 540T358 550Q350 554 346
556H341Q321 556 297 546T246 517T195 475T150 426T118 376T106 331V326Q127 334 143 338T174 344T206 346Q222 346 242 346Q281 346 314 333T371 297T409 241T423 168Q423 122 402 90T348 37T273 8T191 -1Q145 -1 113 17T59 66T29 134T19 212ZM68 192Q81 130 116
100T206 66Q234 66 262 71T313 89T350 124T365 180Q365 198 354 219T325 258T288 287T249 299Q213 299 179 293T119 273T79 240T68 192Z" />
<glyph unicode="7" glyph-name="seven" horiz-adv-x="422" d="M183 29Q197 84 208 133T219 237Q186 237 150 240T84 243Q73 263 76 273T92 289T122 294T160 295T199 294T230 298Q230 298 232 301Q233 304 234 309T237 318T241 326Q246 346 249 364T252 401T252
442T250 490Q231 492 205 491T150 489T96 489T53 496T30 514T38 548Q57 546 89 543T160 539T237 537T308 538Q308 534 308 524T308 502T308 480T308 466Q308 422 303 380T298 296Q310 296 328 296T363 293T392 280T404 250Q404 240 401 230T385 220Q375 220 365
223T344 231T324 239T303 242Q299 242 294 242T288 241L241 20Q237 7 229 3T212 -1Q199 -1 193 8T183 29Z" />
<glyph unicode="8" glyph-name="eight" horiz-adv-x="384" d="M49 221Q59 242 76 262Q94 284 116 308V310V311V312Q116 314 116 315T116 317Q102 329 85 341T52 367T27 397T19 433Q13 445 17 461T34 496T63 531T99 561T137 582Q156 588 172 586Q191 586 213 580T254
561T286 530Q298 512 298 490Q298 464 285 443T255 402T225 363T212 322Q212 311 222 299T249 273T284 243T318 208T345 166Q356 144 356 116Q356 62 326 30Q296 -1 242 -1Q202 -1 162 17T93 65T50 136T49 221ZM104 177Q104 151 114 128T143 86T184 57T235 46Q245
46 258 50T281 61T300 78T308 100Q308 129 296 156T264 207T220 248T172 279Q171 279 168 280Q166 280 164 280Q154 280 143 268T123 238T110 203T104 177ZM68 442Q65 428 75 414T101 388T132 368Q147 360 154 356Q158 360 169 370T192 392T213 417T222 437Q232
446 236 460T237 488T217 512T172 524Q152 524 136 516T106 496T84 469T68 442Z" />
<glyph unicode="9" glyph-name="nine" horiz-adv-x="308" d="M10 452Q10 485 20 514T49 566T95 602T156 615Q184 615 209 605T254 576T286 533T298 480Q289 439 284 392T274 296T268 203T266 121T267 59T272 26Q272 14 261 11T232 8Q221 8 217 29T212 81T212 150T214
220T212 274T202 298Q166 304 132 310T70 331T27 374T10 452ZM67 459Q67 441 72 423T89 389T116 364T153 354Q163 354 173 355T193 364Q194 375 200 399T213 448T226 493T232 518Q232 528 225 537T207 553T184 564T164 568Q114 568 91 538T67 459Z" />
<glyph unicode=":" glyph-name="colon" horiz-adv-x="87" d="M20 100Q20 112 29 119T49 126Q61 126 64 119T68 100Q68 86 63 81T42 76Q20 75 20 100ZM19 322Q19 330 21 338T34 346Q43 346 51 340T66 326T76 307Q78 297 76 288Q76 286 69 279T58 268Q56 267 56
268H53Q45 268 39 274T28 288T21 306T19 322Z" />
<glyph unicode=";" glyph-name="semicolon" horiz-adv-x="132" d="M-15 -158Q-15 -125 -7 -104T11 -63T32 -23T49 29Q51 39 51 54T52 87T59 120T76 145Q97 132 101 111T106 68Q106 52 103 26T94 -28T79 -85T58 -137T31 -174T0 -188Q-7 -188 -10 -185T-15 -177T-16
-167T-15 -158ZM20 384Q19 396 29 398T51 399T71 391T76 384Q84 364 85 351T84 329T74 315T62 308Q48 308 39 315T25 333T19 357T20 384Z" />
<glyph unicode="&lt;" glyph-name="less" horiz-adv-x="499" d="M77 183Q79 184 93 194T130 220T181 256T237 296T292 334T337 364Q347 372 360 380T388 396T416 410T442 422Q444 420 448 417T457 409T466 400T471 394Q471 393 459 384T428 363T387 335T344 306T308
282T289 268Q267 253 243 239T194 208T147 173T106 134Q108 130 121 126T152 117T190 110T229 103T261 98T279 96Q292 94 318 90T370 78T415 57T435 24Q435 0 409 0Q399 0 389 4T368 12T347 22T327 29Q319 31 299 33T252 38T194 45T131 53T73 64T29 78T5 95T10
116L77 183Z" />
<glyph unicode="=" glyph-name="equal" horiz-adv-x="537" d="M20 172Q20 174 23 178T29 183Q72 186 104 188T167 191T227 192T296 193Q312 193 340 195T396 196T448 185T480 154L442 134H76Q63 134 53 135T36 139T24 150T20 172ZM406 346Q384 346 359 343T297
337T202 332T55 334Q43 334 31 339T19 360Q27 373 47 380T98 390T165 395T241 396T319 395T394 394Q409 394 428 394T466 389T496 371T509 337Q509 335 502 328T490 317Q490 317 488 316Q486 315 484 316Q474 316 465 321T446 331T427 341T406 346Z" />
<glyph unicode="&gt;" glyph-name="greater" horiz-adv-x="413" d="M28 34Q30 43 47 58T90 92T147 132T209 175T265 217T307 256T324 288Q326 302 308 308Q290 309 264 314T208 330T148 354T93 383T51 413T29 442Q29 443 29 446T28 452Q28 465 38 468Q46 472 58
472Q74 472 85 465T107 449T128 429T154 413Q206 393 266 374T385 346Q401 341 403 332T405 310Q409 292 403 277T386 250T362 226T337 202Q332 198 309 181T256 141T191 94T127 48T77 13T52 -1Q35 -1 32 9T28 34Z" />
<glyph unicode="?" glyph-name="question" horiz-adv-x="279" d="M182 38Q182 56 193 66T221 77Q237 77 244 63T251 34Q251 23 244 12T221 0Q201 0 192 10T182 38ZM77 384Q77 414 86 442T110 497T140 551T170 605T193 662T202 723Q202 775 174 800T95 826Q75 826
53 816Q31 806 20 788Q14 789 12 794T9 805T8 816T9 823Q9 839 19 850T44 869T75 880T106 884Q144 884 172 869T220 828T250 771T260 706Q260 668 248 627T216 547T175 471T135 404Q137 400 140 395T153 386T181 378T231 370Q236 370 240 366T246 357T250 345Q251
338 251 334Q251 325 245 322T228 317T209 315T193 316Q178 316 158 318T120 328T90 349T77 384Z" />
<glyph unicode="@" glyph-name="at" horiz-adv-x="835" d="M384 0Q302 34 235 84T121 200T47 344T19 517Q19 564 32 612T70 704T129 786T205 853T293 897T392 914Q424 914 460 905T533 879T607 840T675 794T733 743T778 692Q788 678 794 656T803 612T806 567T807
529Q807 506 804 477T793 417T773 359T742 308T700 273Q676 260 644 260Q630 260 616 264T590 277T567 296T548 317Q534 299 514 281T472 247T425 222T375 212Q339 212 311 225T262 262T231 316T220 379Q220 430 238 478T288 563T366 622T466 644Q482 644 512 637T571
615T622 582T644 538Q644 524 635 511T614 490Q600 515 584 534T549 567T506 588T452 596Q407 596 373 577T315 527T280 457T268 379Q268 355 274 335T292 300T324 277T370 268Q390 268 410 277T450 300T485 332Q500 348 509 364Q508 367 507 379T506 408T507 442T512
475T525 500Q534 510 548 510T570 500T582 475T588 442T590 408T588 380T586 364Q588 362 595 354T612 336T633 321T652 317Q680 325 700 351T733 409T752 474T759 526Q761 582 743 627T695 708T624 770T542 816T458 847T384 864Q322 860 263 829T158 750T85 643T57
521Q57 468 73 412T117 303T185 204T272 122T372 66T480 46Q517 46 552 54T623 71T693 89T764 97Q774 80 762 65T723 38T657 17T572 3T478 -2T384 0Z" />
<glyph unicode="A" glyph-name="A" horiz-adv-x="576" d="M470 23Q470 40 473 57T480 92T487 128T490 164Q490 192 488 224T478 285Q450 279 421 280T362 286T302 294T242 298Q233 298 214 298T174 297T136 294Q120 292 116 288L106 279Q106 278 106 275T105 266T105
256T104 248Q104 219 108 190T118 132T129 76Q134 48 134 20V10Q119 -4 107 0T86 22T70 67T60 127T56 194T58 260Q56 262 50 268T38 282T26 297Q22 304 20 308L19 310V312Q19 319 22 322T31 326T41 330T49 337Q49 338 49 342T49 350T49 359Q49 362 49 364Q53 406
55 453T64 546T84 634T122 708T183 759T276 778Q320 778 355 757T418 701T466 619T501 520T524 415T539 314T546 226T548 160Q548 141 548 126T547 97T544 66T538 29Q530 18 518 9T490 -1Q477 -1 474 5T470 23ZM446 326Q449 326 453 326T461 331T467 346T472 374Q472
403 467 440T450 518T422 596T380 664T325 712T254 730Q213 730 185 709T140 653T113 575T99 489T95 408T94 346L446 326Z" />
<glyph unicode="B" glyph-name="B" horiz-adv-x="759" d="M308 29Q306 30 293 37T265 54T239 75T230 96Q234 107 242 111T259 120T274 131T279 154Q262 273 248 364T219 518T185 612T139 644Q138 644 138 644H136H134Q126 639 113 634T84 623T53 613T29 605Q27
605 24 604Q22 604 20 604V634Q20 644 38 653T83 670T144 686T207 699T262 707T294 710Q312 710 337 706T389 694T443 674T491 645T525 609Q538 590 538 566Q538 540 528 518T504 479T480 448T469 422Q469 420 488 411T538 384T604 342T669 287T720 221T740 145Q740
103 722 75T674 31T610 7T541 -1T483 0T432 5T377 14T308 29ZM337 148Q324 128 329 113T351 87T392 70T440 60T484 56Q504 56 514 57Q544 57 573 59T624 72T659 103T672 158Q672 207 647 239T583 295T499 333T415 362T351 391T326 427Q326 438 337 444T366 456T404
466T442 482T471 509T483 552Q483 574 471 591T441 620T401 638T360 644Q332 644 302 638T250 614Q262 563 277 502T305 379T328 256T337 148Z" />
<glyph unicode="C" glyph-name="C" horiz-adv-x="528" d="M19 277Q19 317 32 360T68 447T122 529T192 598T272 646Q314 663 356 663Q380 663 392 645T404 605Q404 592 399 575T384 542T362 514T334 502Q334 512 337 521T345 539T353 557T356 577Q356 591 345 593T322
596Q320 596 314 596Q310 596 308 596Q262 578 218 549T140 481T86 396T66 296Q66 262 72 222T95 147T138 89T207 66Q241 66 274 72T341 86T408 100T476 106Q484 106 492 104T500 92Q500 87 494 80T479 65T462 54T452 49L221 0Q219 0 213 0T202 -1Q169 -1 143 12T96
47T61 97T37 157T23 219T19 277Z" />
<glyph unicode="D" glyph-name="D" horiz-adv-x="759" d="M249 62Q249 70 251 78T264 87Q269 87 289 82T334 69T381 56T413 49H418Q462 49 507 65T589 112T649 181T673 267Q673 303 659 337T622 404T567 463T500 511T429 548T360 569Q361 505 370 448T389 339T404
236Q410 186 404 136Q404 130 404 124T402 111T394 100T380 96Q365 88 357 102T345 144T340 212T337 293T330 377T317 452Q315 464 312 483T304 522T293 560T279 586Q207 586 164 582T96 571T59 559T38 548L36 547Q34 546 33 546Q31 546 31 547Q30 548 29 548Q28
549 27 552T25 559T22 569T20 576V580Q20 594 34 604T70 621T118 632T166 639T204 642T221 644Q272 644 330 633T444 599T552 545T643 470T706 376T730 264Q730 209 713 165T666 88T596 33T511 0T419 -11T326 0Q317 3 304 8T279 21T258 38T249 62Z" />
<glyph unicode="E" glyph-name="E" horiz-adv-x="537" d="M94 569Q90 569 87 570Q92 560 92 556V375Q97 367 121 367T178 371T248 380T317 392T370 402Q392 406 394 404Q397 404 405 404T424 405T442 406T453 407Q453 383 427 368T360 345T274 333T187 325T118
318Q89 316 87 308Q81 292 79 272T76 232T75 191T76 154Q76 150 76 140T76 120T76 100T76 87Q80 77 94 72T124 66T154 65Q170 66 176 66Q210 66 244 69T311 76T378 83T446 87H452Q454 86 458 85T466 82T474 78Q478 76 480 76Q482 75 486 72Q490 70 490 68Q490 49
469 37T416 17T346 6T273 1T213 -1T181 -1Q141 -1 111 6T60 29T29 74Q19 104 19 146Q19 184 24 222T30 299Q30 315 25 326T20 350V356Q22 358 27 365T34 375V596Q34 612 37 620T54 631T92 633T159 630T264 627Q328 626 416 627Q426 623 436 619T454 607T468 591T473
569Q473 566 470 562T464 559L416 578L94 569Z" />
<glyph unicode="F" glyph-name="F" horiz-adv-x="527" d="M194 19Q188 46 185 64T181 96T179 123T179 149T176 181T170 227Q167 247 156 254T131 262T101 261T72 258T50 264Q41 272 41 290Q41 292 45 295T52 299Q70 301 87 301T117 307T140 324Q148 338 148 362Q140
411 141 446T139 505T121 536Q106 545 70 540Q66 540 57 540T37 540T17 539T3 539Q1 537 -6 534T-16 530Q-18 530 -19 530Q-21 529 -22 529L-24 530H-26Q-28 532 -31 539T-35 549V554Q-21 568 14 579T97 598T202 610T316 614T429 606T527 585T598 549Q626 526 629
496Q597 496 567 504T505 522T443 540T377 548Q369 548 354 548T318 549T277 549T238 543T209 530T198 507Q198 492 196 466T195 413T202 361T224 326Q226 326 231 326T242 326T254 326T262 326Q337 332 383 329T450 317T465 297T431 275T351 259T229 254Q231 209
233 184T237 144T242 121T247 101T252 70T256 12Q242 14 230 14T210 15T197 16T194 19Z" />
<glyph unicode="G" glyph-name="G" horiz-adv-x="585" d="M476 45Q473 45 464 45T452 46Q424 46 395 40T336 26T278 13T217 6Q175 6 141 20T83 61T46 122T33 200Q33 244 52 285T103 362T176 429T263 482T353 518T437 536Q457 538 475 533T507 517T528 492T536
456Q522 456 509 459T483 467T456 475T428 478Q392 478 352 468T274 437T201 390T140 329T98 258T82 180Q82 152 96 130T131 94T177 72T226 64Q270 64 316 66T401 81T463 121T487 197Q487 203 485 216Q484 229 476 237H293Q285 237 279 241T266 251T257 265T254
280Q254 288 256 296T268 305T288 302T308 295T328 288T349 284Q384 284 418 290T488 296Q496 296 505 292T521 281T533 265T538 248V-2Q540 -4 545 -8T555 -16T565 -25T572 -32Q574 -39 571 -45T561 -57T548 -66T534 -70Q513 -70 502 -57T484 -26T477 11T476 45Z"
/>
<glyph unicode="H" glyph-name="H" horiz-adv-x="537" d="M364 337Q355 333 338 325T297 306T249 284T202 261T161 242T134 230L136 30Q136 27 129 20T118 10Q102 6 96 22T87 65T83 122T76 177T57 215T20 221Q19 223 18 228T16 235Q16 248 22 252T37 259T51 268T58
289Q58 329 55 368T48 447T41 526T38 605Q38 608 38 615T38 629T38 643T38 652Q41 660 46 662T58 664Q63 664 70 662Q76 660 76 652L116 317Q116 315 119 307T125 298H129H134Q138 299 150 302T192 317T275 355T418 425L422 652Q422 658 426 665T436 679T448 688T460
692Q469 692 474 689T480 672Q480 669 476 662T471 652Q471 648 471 638T470 617T470 595T470 580Q470 495 472 410T480 241Q481 231 483 206T489 151T495 96T500 58Q500 56 501 52T504 43T507 34T509 29V23V20Q507 18 503 15T495 8T486 3T480 0Q466 -3 457 12T443
47T436 88Q434 108 433 116Q433 117 433 131T431 166T429 215T425 269T421 320T416 360L364 337Z" />
<glyph unicode="I" glyph-name="I" horiz-adv-x="172" d="M96 38Q91 75 87 115T78 197T69 278Q64 320 58 356Q55 371 48 396T33 449T21 507T15 560Q27 576 39 566T63 529T86 459T107 368T125 269T140 173T150 93T154 40Q154 34 154 28T153 17T148 7T134 0Q128
-2 122 3T110 16T101 29T96 38Z" />
<glyph unicode="J" glyph-name="J" horiz-adv-x="450" d="M325 -1Q284 7 249 29T183 81T123 144T67 212Q59 222 51 232T37 254T26 281T22 315Q22 333 36 348Q48 362 70 363Q81 357 78 350Q74 344 70 334V329Q70 303 83 273T118 212T168 154T225 104T281 70T331
57Q343 57 350 70T363 104T371 149T374 196T375 234Q375 250 375 256Q375 261 375 271T375 291T374 308T374 317L321 692Q333 723 344 720T366 692T385 624T403 533T417 435T426 346T432 282Q433 258 431 260Q432 244 432 219T428 164T419 106T400 53T370 14T325
-1Z" />
<glyph unicode="K" glyph-name="K" horiz-adv-x="480" d="M394 10Q378 23 353 39T300 75T242 114T185 154T137 193T104 230Q100 213 101 189T106 138T114 87T118 42T113 10T94 -2Q80 -2 71 18T57 69T50 137T48 207T48 265T49 298Q47 330 43 365T33 436T23 507T19
572Q19 574 20 578T25 587T32 595T41 598Q50 598 54 592T61 578T65 561T68 548Q72 532 74 510T78 463T83 411T89 360Q102 374 119 397T158 447T202 502T250 552T298 587T346 600Q353 593 350 584T337 562T315 537T288 509Q267 484 243 458T194 406T149 354Q128
330 115 308Q143 269 178 236T253 172T334 116Q376 89 416 63Q428 59 437 51T450 34T455 16T448 2T428 -2T394 10Z" />
<glyph unicode="L" glyph-name="L" horiz-adv-x="355" d="M19 162Q21 197 23 241T30 330T39 416T51 489T66 537Q76 554 86 548Q100 546 104 526T107 473T99 398T88 312T78 225T76 145Q76 135 79 124T89 102T104 84Q114 76 125 76L326 58Q335 57 336 48T338 34Q338
16 327 10T298 0Q294 0 284 0T262 -1T240 -2T226 -2Q180 -2 142 5T76 30T34 80T19 162Z" />
<glyph unicode="M" glyph-name="M" horiz-adv-x="547" d="M452 20Q450 30 448 52T443 101T437 158T431 216T426 265T422 298Q420 308 420 323T419 354T411 384T394 404Q358 384 322 374T246 364Q187 364 128 436Q124 436 123 430T120 416T119 399T120 384L119
50Q119 44 116 40T107 33T97 30T86 28Q70 28 65 41T57 68V212Q57 278 62 342T68 472Q68 492 60 508T43 539T27 570T19 605Q19 626 39 626Q64 626 81 611T111 575T136 528T164 481T202 445T256 430Q296 428 322 442T365 479T392 528T411 577T428 614Q438 628 452
625Q463 627 468 620T477 603T480 582T481 568Q481 530 476 496T470 422Q470 371 477 321T493 221T510 120T518 20Q518 12 516 7T510 0T501 -2T490 -2Q477 -2 467 1T452 20Z" />
<glyph unicode="N" glyph-name="N" horiz-adv-x="624" d="M29 61Q29 108 32 155T39 248T47 341Q50 388 50 434Q50 460 45 484T39 533V538Q41 539 46 540T58 543T70 546Q75 548 77 548H87Q95 512 108 462T141 360T186 257T246 165T322 100T416 76Q447 76 470 86T509
115T531 159T539 214Q539 253 524 286T490 351T457 413T441 480Q441 494 444 502T461 510Q477 510 493 492T525 446T553 384T576 315T591 252T597 206Q597 163 583 128T544 66T483 25T404 10Q357 10 320 28T253 74T201 135T162 195T135 242T116 260Q103 260 97
251T89 230T86 205T86 184Q86 152 92 125T98 66Q98 59 97 48T92 26T81 7T63 -1Q53 -1 47 6T36 23T31 43T29 61Z" />
<glyph unicode="O" glyph-name="O" horiz-adv-x="624" d="M19 279Q17 323 30 361T69 428T130 476Q166 492 209 496Q284 485 352 458T473 389T559 291T596 165Q586 113 555 83T482 37T392 12Q344 5 304 -1Q242 -1 190 19T100 76T41 164T19 279ZM66 284Q65 238 85
198T139 128T213 78T295 52Q309 52 332 54T382 62T436 77T486 100T523 132T538 175Q531 225 508 264T450 333T376 384T297 417T224 434Q190 438 168 434Q137 423 118 405T87 367T71 325T66 284Z" />
<glyph unicode="P" glyph-name="P" horiz-adv-x="643" d="M308 0Q294 25 285 64T269 147T258 228T250 288V460Q250 471 259 480T279 490Q281 490 284 490T288 490Q292 463 294 435T297 378T304 322Q308 294 317 268Q333 264 352 262Q370 262 394 260Q420 260 450
268T507 293T550 332T568 385Q568 417 547 441T493 485T420 518T342 540T270 553T219 557Q213 557 197 558T162 559T124 556T96 548Q87 543 80 530T65 504T51 480T34 470H32Q31 470 29 471Q27 472 26 474T24 484T21 507T20 548Q20 559 30 568T58 585T96 597T134
606T167 612T187 614Q221 614 266 610T360 596T456 568T541 525T602 463Q625 428 625 380Q630 346 613 318T567 267T500 228T428 202T365 190T326 192V183Q326 148 332 114T338 45Q338 41 337 33T333 16T324 3T308 0Z" />
<glyph unicode="Q" glyph-name="Q" horiz-adv-x="658" d="M430 12Q426 12 418 12L410 11Q407 10 396 9T371 6T347 3T332 2H328Q268 -3 213 17T116 76T50 167T26 280V294Q26 342 43 388T92 470T165 528T258 550Q291 550 331 534T413 491T494 428T564 354T613 277T632
204Q632 177 623 155T600 114T566 80T524 50V40Q524 22 534 8T561 -18T595 -39T630 -58T657 -76T670 -95Q648 -116 629 -116T591 -104T554 -71T516 -31T475 1T430 12ZM82 280Q78 233 95 194T144 126T218 82Q258 66 304 67Q313 67 323 67T342 70T356 80T362 102Q358
121 345 141T322 179T309 212T320 238Q336 238 353 220T387 179T420 132Q435 110 448 98Q450 98 455 98T462 97Q476 97 496 105T535 127T568 156T582 189Q582 210 575 230T557 270T532 306Q520 323 506 338Q498 346 485 359T459 385T435 406T419 415Q417 392 411
370T390 328Q389 328 388 328L386 327H383Q382 327 381 328Q380 328 376 330T367 335T358 340L354 344Q372 388 367 415T344 459T299 481T248 488T206 486Q188 484 189 482Q155 470 134 449T102 400T86 342T82 280Z" />
<glyph unicode="R" glyph-name="R" horiz-adv-x="593" d="M198 222Q205 177 214 140T229 74T232 29Q230 12 212 8Q210 2 204 15T190 54T173 118T156 196T140 282T129 366T124 439T130 494Q142 503 151 499T166 484T174 461Q174 448 172 437Q173 433 175 422T181
399T187 375T192 360Q206 362 233 365T293 375T358 391T419 412T463 440T481 476Q481 478 480 481V484Q452 516 423 536T362 565T293 578T216 581Q186 581 153 581T93 572T47 543T29 482Q20 482 13 488T1 502T-7 520T-10 537Q-10 551 -4 563T12 586T34 604T58 619Q90
625 114 629T161 635T205 638T256 639Q284 639 315 635T378 621T438 598T489 563T525 516T538 456Q538 427 520 405T472 367T406 340T333 321T264 306Q232 298 212 292Q262 223 311 175T403 94T481 41T538 6T566 -16Q572 -24 557 -34Q546 -48 521 -41T464 -14T394
37T321 101T253 166T198 222Z" />
<glyph unicode="S" glyph-name="S" horiz-adv-x="643" d="M20 178Q20 188 24 199T35 221T52 239T73 246Q73 181 96 144T159 86T252 59Q304 52 364 49Q384 50 416 50T479 57T530 79T550 125Q550 139 549 150T545 169T533 186T509 202L212 364Q196 373 181 386T156
416T140 451T134 488Q134 526 154 550T205 588T271 609T337 615Q351 615 373 613T420 605T469 592T513 572T544 543T557 504Q543 496 529 499T499 510T468 528T435 548T399 564T359 568Q340 568 310 566T252 557T203 534T182 490Q182 463 201 441T252 398T325 359T407
321T488 280T557 234T603 181T615 116T584 54T518 14T429 -5T328 -5T225 14T132 51T60 106T20 178Z" />
<glyph unicode="T" glyph-name="T" horiz-adv-x="595" d="M316 556Q246 556 172 565T29 586Q20 584 15 588T7 600T4 615T3 626Q18 626 55 626T142 625T252 622T372 616T488 607T587 593T656 573T682 548Q682 538 679 528T664 518Q627 520 591 529T519 546T446
558T369 550Q369 504 374 449T387 337T404 223T423 116Q425 103 431 91T445 67T457 43T462 19Q462 11 457 7T445 1T430 -1T417 -1Q397 -1 386 15T368 52T360 97T356 134Q348 189 342 240T332 343T324 447T316 556Z" />
<glyph unicode="U" glyph-name="U" horiz-adv-x="585" d="M28 390Q28 399 28 414T30 448T36 486T48 521T68 547T97 557Q108 557 114 551T121 537T116 518T97 500Q88 500 84 487T78 457T76 426T76 408Q76 382 78 348T86 278T103 205T133 140T178 90T241 68Q269
66 306 78T375 112T429 164T452 226V230Q445 272 438 300T425 351T416 398T412 454Q415 500 422 522T438 547T455 536T471 496T481 433T483 355Q484 325 494 289T518 217T544 147T565 88T569 46T548 29Q528 29 518 41T501 67T486 94Q478 106 466 106Q456 106 442
99T411 79T373 53T330 27T285 7T238 -1Q195 -1 163 19T108 73T70 148T45 234T32 318T28 390Z" />
<glyph unicode="V" glyph-name="V" horiz-adv-x="432" d="M19 514Q19 525 26 527T42 530Q61 530 77 508T106 457T130 398T149 352Q152 346 161 327T181 282T205 228T230 173T250 128T261 102Q267 108 273 130T287 184T302 255T316 333T332 409T348 474T363 517T379
530Q394 534 400 516T405 464T397 384T379 290T353 192T321 103T287 35T254 -1Q252 -1 247 -1T241 0Q236 10 223 34T196 86T170 138Q158 162 154 172Q148 185 136 212T108 272T78 343T49 413T27 473T19 514Z" />
<glyph unicode="W" glyph-name="W" horiz-adv-x="720" d="M332 116Q331 116 331 116T329 116H327Q283 76 256 54T213 22T190 10T180 8Q142 8 115 29T69 85T39 162T21 249T13 330T10 394Q10 397 10 415T13 455T24 493Q34 510 50 510Q57 510 60 491T65 442T71 373T77
293T87 213T104 144T130 95T168 76Q186 76 202 86T233 110T258 139T279 164Q285 178 287 196T290 233T291 269T289 298Q294 312 301 317T314 321T326 311T337 288Q342 256 355 217T389 145T442 89T514 66Q536 66 559 75T601 100T632 137T644 182Q644 220 632 256T605
327T578 398T566 471Q579 499 594 495T625 465T655 401T680 321T696 245T701 192Q701 154 685 120T642 59T579 16T505 0Q475 0 447 18T396 58T357 98T332 116Z" />
<glyph unicode="X" glyph-name="X" horiz-adv-x="547" d="M20 -31Q20 6 39 47T87 129T147 209T202 277Q202 293 194 312T172 352T144 394T116 436T95 476T86 514Q86 526 89 532T106 538Q111 537 120 525T141 495T165 456T189 416T209 382T222 362Q232 344 242
336T272 337T327 377T420 465Q427 471 445 482T482 499T519 504T539 482Q507 462 472 437T402 384T335 325T280 266Q289 241 310 210T356 146T404 85T438 34T446 4T412 2Q386 22 363 49T319 104T276 160T231 209H226Q220 209 210 200T189 176T165 145T140 110T120
78Q110 64 106 56Q100 49 92 31T75 -8T56 -44T39 -62Q27 -62 24 -54T20 -31Z" />
<glyph unicode="Y" glyph-name="Y" horiz-adv-x="413" d="M202 4Q202 7 202 14T202 30T202 46T202 57Q202 100 206 133T218 199T237 264T260 340Q260 342 260 347T261 355Q263 356 244 365T196 390T135 432T75 490T31 564T18 655Q19 655 23 655T33 656T44 658H50Q57
638 69 613T98 562T137 512T181 468T230 437T283 425Q301 465 311 488T328 525T336 544T339 558T341 576T346 609Q346 613 354 617T370 623T386 621T394 609Q394 554 382 505T352 408T314 315T279 219T258 117T260 4Q254 -7 248 -11T232 -16Q222 -16 215 -12T202
4Z" />
<glyph unicode="Z" glyph-name="Z" horiz-adv-x="585" d="M172 72Q172 97 187 119T220 162T253 203T268 245V250Q267 252 264 259Q262 266 260 268Q258 268 253 268T243 268T232 269T226 269Q197 269 169 263T110 257Q110 271 114 286T134 308Q167 318 196 322T250
330T293 339T327 358T350 394T363 457Q363 493 346 517T301 557T242 579T181 586Q157 586 136 580T96 567T61 553T27 547Q25 547 22 550T17 556V562Q17 588 34 602T76 624T124 633T165 634Q211 634 256 626T335 597T391 540T412 449Q412 433 409 422T403 402T397
381T394 356Q394 351 404 348T429 344T461 341T494 337T519 328T530 312Q530 311 530 310L529 308Q522 304 513 299T494 290T474 282T456 279Q452 279 450 280T445 283T440 286T434 288Q395 288 367 269T316 221T276 158T241 96Q241 94 240 89T238 82Q238 66 245
62T267 57Q303 57 338 65T408 82T478 98Q514 106 548 106Q561 106 564 99T568 81Q568 69 565 62T548 49Q484 27 420 13T288 -1Q284 -1 275 -1T254 -1T234 0T221 0Q196 8 184 27T172 72Z" />
<glyph unicode="[" glyph-name="bracketleft" horiz-adv-x="489" d="M20 576V580Q20 590 25 599T38 614Q82 631 135 650T243 684T353 710T457 721H460Q462 719 466 712T471 701V696V692Q469 690 466 686T460 682Q418 673 372 662T278 637T184 609T96 576H88Q88
567 91 549T99 510T111 471T125 442Q145 310 155 222T173 80T186 3Q194 -20 206 -20Q264 -20 321 -14T437 -8Q441 -8 454 -8T482 -8T510 -9T529 -9Q538 -17 547 -28T557 -54Q557 -55 556 -56V-56V-58Q554 -60 548 -63T538 -67Q509 -66 467 -66T379 -65T292 -68Q250
-70 221 -76Q219 -76 214 -78T202 -81T191 -84T183 -86Q181 -87 177 -88T169 -92T159 -95L154 -96Q153 -96 150 -92T145 -86Q142 -82 138 -72T134 -58Q133 -54 133 -41T132 -12T130 24T128 59T126 88T125 106Q124 111 122 126T116 163T108 210T100 260T93 304T87
337Q86 338 85 342T82 350T78 359Q76 362 76 364V375L20 576Z" />
<glyph unicode="\" glyph-name="backslash" horiz-adv-x="441" d="M337 87Q327 98 307 123T263 179T211 244T160 310T116 367T87 404Q83 410 70 426T44 463T20 505T10 542Q10 550 16 553T29 557Q31 557 48 539T94 490T157 420T229 336T301 248T363 165T407 95T424
46Q424 40 421 32T413 16T400 3T385 0Q367 4 360 13T351 36T347 62T337 87Z" />
<glyph unicode="]" glyph-name="bracketright" horiz-adv-x="441" d="M66 -47Q66 -43 66 -36Q68 -30 68 -28L87 -20H346Q354 -20 355 -13T356 -2Q356 48 357 111T358 243T355 383T345 522T324 647T289 748Q275 756 250 762T193 773T129 783T70 795T26 810T9 830Q13
841 32 845T78 850T135 845T193 837T241 829T269 826Q304 819 324 802T356 759T373 704Q378 676 385 644Q386 624 387 589T391 507T397 407T403 298T409 190T415 90T420 8T423 -47V-65Q423 -73 418 -78T405 -88T390 -94T375 -96H106Q80 -96 73 -83T66 -47Z" />
<glyph unicode="^" glyph-name="asciicircum" horiz-adv-x="384" d="M192 634Q173 610 152 587T111 551T75 541T50 572Q78 598 98 614T131 646T154 683T172 740Q174 748 180 748T193 749Q207 749 214 743T230 721Q236 711 247 699T269 673T291 647T308 626Q315
615 318 608T324 596T327 584T328 568Q328 554 325 546T308 538Q293 538 281 549T255 575T227 606T192 634Z" />
<glyph unicode="_" glyph-name="underscore" horiz-adv-x="672" d="M28 87Q28 103 40 104T67 106Q103 106 139 99T212 87H221Q225 87 240 86T275 84T317 81T359 79T393 77T413 76Q417 76 431 76T464 76T504 76T544 76T577 76T596 76Q607 76 617 73T636 65T649
50T654 29Q654 19 648 10T631 0Q605 0 566 2T479 7T380 14T278 25T183 38T104 53T49 69T28 87Z" />
<glyph unicode="`" glyph-name="grave" horiz-adv-x="177" d="M88 548Q100 538 106 532T118 521T130 510T149 494Q151 492 155 485T159 476Q159 456 152 451Q144 446 130 446Q128 446 125 447T112 455T85 477T40 519Q32 530 26 543T20 563T37 568T88 548Z" />
<glyph unicode="a" glyph-name="a" horiz-adv-x="518" d="M19 169Q20 186 29 208T57 251T105 288T173 312T263 313T376 283Q376 284 376 293L375 302Q375 328 360 355T322 403T271 438T219 452Q209 452 202 449T187 442T174 434T158 430Q156 430 156 431Q155 432
154 433Q152 435 149 438T145 442Q145 460 151 473T169 494T195 506T226 511Q266 507 302 487T369 435T423 364T461 280T482 192Q488 146 483 106Q482 106 477 106T466 107T456 109L451 110Q430 157 404 186T353 231T305 254T269 264Q254 264 234 262T191 255T147
242T107 221T79 193T68 154Q68 130 87 114T133 87T188 72T233 68Q261 68 288 71T341 78T394 85T446 88Q448 88 453 88T463 88T473 87T480 87Q488 84 489 78T490 66Q490 60 478 53T445 39T401 25T354 12T312 4T284 0Q242 0 195 7T109 32T45 84T19 169Z" />
<glyph unicode="b" glyph-name="b" horiz-adv-x="509" d="M29 480Q24 524 17 555T10 606T23 637Q36 648 68 652Q70 642 73 614T79 551T87 477T96 406T105 354Q110 332 114 334Q132 334 149 340T187 346Q217 346 251 341T318 324T383 296T438 255T476 202T490 136Q490
90 468 63T410 21T334 3Q292 -1 256 -1Q206 -1 173 11T119 46T87 97T71 160T64 232T58 308Q57 315 53 339T44 393T34 448T29 480ZM125 218Q115 174 130 142T175 90T243 61T320 58T388 82Q420 101 434 134Q434 161 422 183T389 222T344 251T292 272T239 284T193
289Q160 289 143 270T125 218Z" />
<glyph unicode="c" glyph-name="c" horiz-adv-x="460" d="M19 223Q19 267 36 308T82 382T151 433T234 452Q254 452 276 448T319 433T352 407T365 365Q365 361 363 349T356 325T347 304T337 294Q337 341 311 372T235 404Q197 404 167 388T117 346T87 288T76 221Q76
175 91 145T132 97T192 69T264 57T340 55T413 58Q416 58 423 54T433 49V46Q433 44 433 44T434 43Q434 32 423 24T396 11T361 4T324 1T291 -1T271 -1Q213 -1 167 12T88 52T37 122T19 223Z" />
<glyph unicode="d" glyph-name="d" horiz-adv-x="537" d="M19 227Q19 264 28 305T58 381T110 438T188 461Q212 461 236 454T285 434T338 404T397 365Q401 405 394 447T376 531T354 608T337 674T336 722T360 746Q387 726 406 690T440 605T463 503T478 392T487 283T495
186T502 110T513 65Q513 49 502 45T478 41Q468 41 461 48T450 66T443 88T435 111T426 129T413 136Q411 136 408 136T404 134Q385 108 360 84T304 41T240 11T172 0Q134 0 106 25T58 85T29 159T19 227ZM81 209Q91 173 99 146T118 102T146 77T188 68Q220 68 256 86T323
134T374 197T394 264Q394 267 394 276T394 288Q341 340 297 362T217 385T156 370T113 328T88 270T81 209Z" />
<glyph unicode="e" glyph-name="e" horiz-adv-x="528" d="M19 268Q19 320 34 367T79 451T151 508T250 530Q283 526 307 512T347 478T370 430Q376 404 376 374Q376 338 355 309T302 261T233 231T164 220Q152 220 140 220T117 224T101 236T95 260Q95 265 96 268T105
273T126 274Q140 272 164 268Q178 268 204 277T258 302T306 336T326 375Q326 395 320 414T300 449T270 473T230 480Q195 477 167 461T118 420T87 363T76 298Q76 272 77 246T84 195T105 147T147 107T217 78T321 63L500 75Q484 53 460 39T408 17T353 4T302 0Q244
0 193 19T103 72T42 156T19 268Z" />
<glyph unicode="f" glyph-name="f" horiz-adv-x="386" d="M338 318Q359 318 356 298Q365 287 356 278T324 264T269 259T197 268Q197 230 214 197T253 134T292 76T310 20Q310 7 302 3Q296 -1 284 -1Q274 -1 263 6T242 25T224 48Q217 60 213 68T202 91T184 126T164
167T145 209T128 245Q120 260 117 268L106 279Q101 277 88 275T59 269T30 263T10 260H5Q-3 260 -6 265T-9 279Q-9 296 3 305T32 318T67 323T98 326Q96 356 95 397T99 482T115 568T148 645T203 700T284 721Q311 721 343 708T402 672T448 623T466 567H443Q423 567
408 582T375 615T339 649T296 664Q262 664 234 649T186 609T156 553T146 490V480L164 337Q166 335 175 334T203 330T255 324T338 318Z" />
<glyph unicode="g" glyph-name="g" horiz-adv-x="375" d="M-134 -278Q-138 -264 -134 -253T-121 -235T-104 -226T-88 -228T-80 -245T-86 -278Q-86 -300 -68 -321T-20 -359T45 -390T113 -414T172 -429Q196 -434 208 -434Q233 -434 250 -421T280 -387T300 -340T312
-287T317 -235T318 -193Q318 -185 317 -164T312 -114T305 -56T296 0T286 42T274 58Q264 58 251 52T223 39T193 26T164 20Q136 20 109 32T63 63T31 108T19 162Q19 206 36 252T84 336T156 398T245 422Q281 412 303 377T338 289T356 174T364 44T367 -85T375 -201Q375
-224 373 -255T364 -320T348 -385T320 -443T279 -484T222 -500Q196 -500 160 -494T84 -475T5 -443T-65 -400T-115 -345T-134 -278ZM76 179Q76 161 81 145T97 115T123 95T158 87Q209 87 235 107T272 157T282 221Q281 256 279 284Q279 298 277 312T269 338T253 357T226
364Q193 364 165 346T118 300T87 240T76 179Z" />
<glyph unicode="h" glyph-name="h" horiz-adv-x="438" d="M328 18Q330 44 332 72T335 128T337 183T338 232Q338 264 329 293T303 343T261 377T200 390Q186 390 176 388T156 382T134 370Q122 362 106 351Q106 349 106 344T105 337Q105 315 109 279T119 203T129
126T134 66Q134 64 134 58T134 45T133 32T133 23Q127 9 119 6T98 2Q86 0 80 19T71 74T66 161T59 273T46 402T21 543Q13 571 9 590T0 625T-7 657T-14 697V701Q-14 705 -9 708T2 715T15 719T26 721Q45 671 56 637T75 577T85 535T90 502T93 469T97 428Q149 460 191
463T267 451T324 403T365 331T389 246T400 159T399 82T385 25T361 0T328 18Z" />
<glyph unicode="i" glyph-name="i" horiz-adv-x="179" d="M63 346Q63 350 63 361T63 384T64 407T64 422Q60 453 82 453Q92 453 99 448T112 433Q109 381 116 333T133 237T151 141T160 41Q160 27 152 13T126 -1Q113 -1 104 21T87 78T75 155T68 235T64 304T63 346ZM12
597Q12 609 19 612T37 616Q44 617 55 608T74 586T83 564Q84 552 68 550H63Q48 550 38 552T23 558T15 572T12 597Z" />
<glyph unicode="j" glyph-name="j" horiz-adv-x="205" d="M146 -459Q98 -446 54 -416T-25 -345T-83 -255T-112 -153Q-112 -146 -112 -140T-112 -128T-107 -117T-94 -110Q-81 -117 -69 -138T-42 -190T-12 -253T25 -313T73 -358T134 -376Q145 -376 152 -370T164
-356T170 -337T172 -319Q176 -231 165 -144T138 31T105 204Q88 290 81 376Q83 383 83 388T85 396T93 402T110 404Q120 397 131 368T155 294T179 192T201 71T218 -57T227 -183T228 -297T216 -387T189 -444T146 -459ZM29 578Q29 582 36 589T49 597Q63 600 72 594T88
577T97 553T100 530Q89 520 77 519T54 525T36 546T29 578Z" />
<glyph unicode="k" glyph-name="k" horiz-adv-x="413" d="M50 29Q50 31 51 39T54 58T57 76T58 87T58 97T58 117T59 140T59 158T59 174T59 194T58 212T58 221Q55 267 47 318T29 421T11 521T-2 611Q7 635 17 628T39 592T61 523T80 438T96 357Q102 319 106 298Q108
296 113 296T121 296Q141 296 156 308T184 338T211 378T238 418T269 448T308 461Q322 461 325 453T327 433Q313 422 295 404T257 365T216 321T180 277T154 235T143 200Q143 178 157 160T194 127T245 102T301 84T354 72Q378 68 394 68Q403 66 404 58T405 43Q405
28 396 21T373 11T345 8T320 8Q298 8 270 22T215 52T168 83Q148 97 140 97Q124 97 119 82T111 48T105 15T85 -1Q72 -1 61 6T50 29Z" />
<glyph unicode="l" glyph-name="l" horiz-adv-x="123" d="M41 8Q31 79 29 149T26 291T28 432T29 572Q29 580 35 583T49 586Q58 586 65 580T77 564T84 545T87 529Q93 386 95 291T95 137T89 50T77 12T61 4T41 8Z" />
<glyph unicode="m" glyph-name="m" horiz-adv-x="768" d="M671 35Q671 38 671 43T672 53T672 62L673 68Q673 71 674 85T678 115T681 145T682 164Q680 185 673 219T652 286T615 343T563 367Q536 367 507 354T452 319T410 269Q393 242 393 212Q393 197 398 183T408
154T419 125T424 94Q424 82 420 70T398 58Q380 58 369 79T348 132T328 202T302 271T264 325T206 346Q179 346 158 335T124 304T103 261T95 212Q95 172 100 134T106 56Q106 42 103 31T83 19Q72 19 65 24T52 38T44 57T39 76Q41 117 40 152T36 218T31 282T28 350Q28
352 28 357T28 367T29 377T29 384Q30 386 34 389T39 394H44Q61 394 69 382Q77 372 77 356Q93 373 105 382T129 397T153 403T184 404Q213 404 236 398T279 381T314 350Q330 332 346 308Q347 308 348 308T351 307Q352 307 361 316T385 339T420 369T462 400T507 423T552
433Q586 433 612 419T660 382T696 329T721 268T735 205T740 148Q740 138 740 114T735 64T720 19T692 -1Q683 -1 679 2T673 11T671 22T671 35Z" />
<glyph unicode="n" glyph-name="n" horiz-adv-x="471" d="M29 390Q29 399 35 401T50 404Q56 404 58 401T62 394T65 387T72 383Q86 383 106 394T149 418T199 442T252 453Q286 453 314 436T365 389T404 324T431 251T447 178T452 116Q452 107 451 89T446 53T434 22T414
8Q412 8 407 8T397 10T389 14T385 20Q394 97 385 164T356 283T307 364T245 394Q214 394 187 384T140 355T109 309T97 250T103 187T116 124T130 60T136 -4Q108 -4 89 19T59 78T41 159T32 247T29 329T29 390Z" />
<glyph unicode="o" glyph-name="o" horiz-adv-x="499" d="M19 204Q19 259 43 300T106 369T193 410T291 424Q317 424 339 415T382 389T419 351T446 306T464 260T470 214Q470 163 450 123T396 56T319 14T231 -1Q185 -1 147 13T80 54T35 118T19 204ZM68 212Q68 181
79 153T111 103T160 70T220 57Q237 55 261 62T310 84T357 119T395 164T413 215T405 268T359 319T268 365Q235 365 200 356T135 327T87 279T68 212Z" />
<glyph unicode="p" glyph-name="p" horiz-adv-x="533" d="M19 131Q19 194 41 237T99 306T184 344T286 356Q329 356 369 342T442 303T493 242T512 160Q512 120 497 95T456 55T399 34T334 28Q302 28 269 31T207 45T161 78T143 140Q164 140 183 132T223 114T263 96Q282
87 304 87Q320 87 346 90T396 101T437 125T454 163Q454 197 439 222T400 263T346 289T286 298Q282 298 267 296T231 290T189 279T149 263T118 241T106 214V202Q107 191 108 173T111 136T114 103T116 87Q118 71 123 38T134 -37T147 -125T162 -212T174 -287T183 -335Q183
-337 183 -338T184 -341T184 -342L183 -344V-346Q181 -349 174 -356Q166 -362 164 -364H158Q148 -364 137 -346T115 -296T92 -223T69 -138T49 -51T33 29T23 93T19 131Z" />
<glyph unicode="q" glyph-name="q" horiz-adv-x="422" d="M260 29Q258 28 249 27T230 24T212 21T202 20Q153 20 119 38T62 88T30 159T19 241Q19 291 34 339T80 426T152 487T248 510Q268 510 292 503T336 483T370 450T384 404L354 58Q354 14 357 -29T365 -116T372
-204T376 -291Q376 -306 374 -316Q374 -327 356 -327Q340 -327 330 -312T315 -271T309 -214T307 -149T305 -84T301 -27T291 13T269 29H260ZM66 238Q66 209 75 182T101 133T142 99Q168 86 200 86Q222 86 245 89T288 106Q293 137 294 172T299 245T308 319T327 391Q327
408 318 421T294 443T263 456T230 460Q192 460 162 437T111 380T78 308T66 238Z" />
<glyph unicode="r" glyph-name="r" horiz-adv-x="355" d="M110 0Q88 40 72 87T45 182T28 275T19 358Q19 365 18 373T17 391T20 408T29 422H31Q32 422 32 422T33 423Q34 423 34 423T36 422H38Q40 421 48 418T58 413Q76 419 95 427T133 443T173 456T212 461Q226
461 236 460T257 457T280 451T308 442Q316 436 322 431T334 418T343 401T346 375Q330 373 309 377T264 389T215 401T167 405T124 392Q103 382 87 356Q80 327 81 299T88 245T103 192T121 139T137 86T146 33Q146 23 135 12T110 0Z" />
<glyph unicode="s" glyph-name="s" horiz-adv-x="527" d="M17 121Q25 127 31 128T46 130Q55 130 64 126T80 115T96 102Q104 96 113 92Q139 81 154 74T183 63T213 58T257 57Q278 57 308 57T365 61T411 81T430 126Q431 155 415 171T370 197T307 209T235 217T163
228T99 252T54 296Q37 324 36 368Q42 400 67 421T128 454T204 466T277 457T333 423T357 366Q359 346 354 333T341 314T323 307T309 314T304 333T316 365Q312 384 293 395T249 410T196 413T144 402T106 381T93 351Q93 321 110 305T156 279T220 266T295 259T370 249T435
227T481 187T498 120Q498 89 482 67T442 29T388 7T333 0T278 0T218 4T156 13T99 33T51 68T17 121Z" />
<glyph unicode="t" glyph-name="t" horiz-adv-x="336" d="M136 344Q128 344 108 344T67 347T28 359T10 382Q10 386 11 393T21 401L124 410Q128 447 130 470T131 514T129 557T126 616Q126 623 129 627T136 633T146 636T155 637Q161 637 167 633T179 623T187 611T190
598L198 411L284 407Q301 409 315 401T331 369Q319 356 302 354T267 351T230 352T198 342Q198 336 199 309T201 245T203 166T206 89T207 28T208 0Q185 -14 171 2T149 51T137 127T133 213T133 292T136 344Z" />
<glyph unicode="u" glyph-name="u" horiz-adv-x="514" d="M384 145Q361 132 345 114T311 79T274 50T221 38Q185 38 156 53T105 95T66 155T39 224T23 294T17 357Q9 411 20 441T46 480T73 477T76 433Q74 429 73 421T71 403T69 386T68 375Q68 354 72 326T84 266T106
205T137 150T178 111T230 96Q248 96 271 113T314 155T349 206T364 250Q364 260 364 283T365 332T365 381T364 413Q370 423 377 428T394 434Q406 434 414 418T427 377T434 323T437 267T439 220T442 192Q447 172 456 147T475 99T491 56T498 26Q498 11 490 8T468 5Q452
5 445 13T434 33T428 61T422 92T409 122T384 145Z" />
<glyph unicode="v" glyph-name="v" horiz-adv-x="399" d="M10 356Q11 359 13 363T18 373T25 381T34 385Q35 385 35 385T37 384H39Q62 373 77 353T103 306T125 251T147 193T177 137T220 89Q229 119 238 147T258 205T285 265T321 332Q345 342 359 344T380 341T382
324T365 298Q357 291 347 266T324 207T299 136T271 69T244 18T217 -1Q203 -1 186 20T148 76T108 150T70 231T36 304T10 356Z" />
<glyph unicode="w" glyph-name="w" horiz-adv-x="672" d="M346 96Q306 42 266 21T189 1T120 28T64 88T26 169T10 262T22 353T68 433Q84 427 86 417Q88 406 88 394Q88 377 85 362T77 330T70 297T66 262Q66 249 69 230T77 188T92 145T113 106T141 77T175 65Q192
65 215 75T260 102T296 138T311 178L317 308Q317 311 321 314T329 319T339 324T346 326Q360 326 365 308T373 262T380 201T394 141T426 94Q446 76 484 76Q521 77 543 91T575 130T585 183T577 242T557 299T529 346Q527 354 529 357T534 362T543 364T551 365Q567
361 585 339T618 285T639 216T644 141T622 72T567 20Q523 17 495 17T449 18T419 27T398 42T377 65T346 96Z" />
<glyph unicode="x" glyph-name="x" horiz-adv-x="459" d="M393 -52Q366 -29 343 -3T296 49T247 99T191 140Q177 140 166 131T143 106T123 72T105 37T89 9T76 -5Q57 -4 57 14Q57 42 72 67T105 115T139 157T154 193Q154 194 154 195T153 197Q136 213 114 234T70
278T28 326Q10 348 -1 370Q-3 378 -1 382T6 388T15 391T23 392Q48 383 70 363T114 321T155 278T196 246Q216 249 241 266T293 306T346 350T394 385T431 397T452 371Q452 366 439 355T405 327T360 293T312 258T269 225T239 197Q260 177 288 151T345 96T396 35T431
-23Q427 -33 421 -43T403 -53Q401 -53 398 -53T393 -52Z" />
<glyph unicode="y" glyph-name="y" horiz-adv-x="499" d="M46 -312Q46 -305 46 -299T48 -288T54 -280Q60 -278 68 -278Q83 -295 106 -321T160 -373T223 -417T290 -436Q318 -435 338 -422T372 -386T395 -336T409 -279T417 -223T423 -176Q425 -166 427 -143T432
-91T436 -31T436 25T428 67T410 84Q393 84 374 74T335 52T293 29T252 19Q214 19 183 34T125 75T79 133T46 203T26 275T19 343Q19 350 18 366T18 399T27 429T49 442Q53 442 55 426T61 385T70 326T85 259T107 192T139 134T184 92T245 76Q267 76 291 85T336 110T376
144Q394 164 404 183Q404 187 403 202T401 236T399 279T397 322T396 358T395 377Q397 438 404 451T421 443T442 369T462 248T477 96T482 -68T472 -228T441 -364T386 -461T302 -500Q282 -500 255 -493T199 -472T144 -441T95 -402T60 -358T46 -312Z" />
<glyph unicode="z" glyph-name="z" horiz-adv-x="471" d="M86 68Q86 85 96 106T122 147T154 186T181 217L49 221Q45 221 43 224T39 231T38 240T38 245Q38 254 39 258T44 265T54 268Q60 268 68 268Q78 269 102 272T154 278T206 283T241 288Q255 308 264 322T278
349T286 375T289 406Q289 414 288 425T282 446T270 464T250 471H125Q114 471 105 463T88 446T72 430Q64 422 58 422Q41 422 30 431T19 457Q19 473 30 484T61 503T102 516T146 524T186 528T215 530Q243 530 267 522T309 499T336 461T346 410Q346 392 342 377T333
347T324 317T320 285Q321 285 332 286T358 288T383 287T394 275Q394 273 394 273T394 271V268Q391 263 384 254T375 245L268 235Q260 221 245 205T215 171T188 136T174 105T184 81T230 66Q252 66 277 70T329 81T379 97T422 116Q430 110 436 101T442 82Q442 67 428
56T392 35T343 19T290 8T241 2T206 0Q192 0 172 4T132 15T99 36T86 68Z" />
<glyph unicode="{" glyph-name="braceleft" horiz-adv-x="403" d="M66 72Q66 109 82 135T122 184T173 224T224 263T264 308T280 364Q280 366 280 370T280 379T279 388T279 394Q277 396 269 400Q262 404 260 404H254Q234 404 208 395T155 372T104 346T68 326Q66
326 63 326T58 326Q45 326 42 332T38 350Q38 352 38 358Q38 362 38 364Q52 371 75 381T120 405T160 435T183 471Q143 478 113 500T61 554T30 621T19 694Q19 739 44 779T109 849T195 896T284 914Q298 914 314 910T344 898T367 876T376 844Q376 836 373 825T360 814Q354
814 347 822T330 839T309 857T284 865Q241 861 206 846T143 805T96 746T66 672Q66 641 78 619T110 579T156 548T208 524T260 503T308 480Q302 461 307 446T321 418T338 389T346 356Q346 321 329 295T287 247T231 206T176 165T133 118T116 58V49Q128 28 141 10T171
-20T208 -40T254 -47H260Q297 -40 332 -34T406 -28Q406 -45 395 -57T365 -76T325 -88T282 -94T243 -96T216 -97Q180 -104 152 -90T105 -49T76 10T66 72Z" />
<glyph unicode="|" glyph-name="bar" horiz-adv-x="153" d="M76 10Q75 18 75 38T72 81T69 125T68 154Q66 200 66 239T66 317T61 395T49 480Q41 514 30 552Q19 590 19 626Q19 632 20 642V652Q20 654 23 658T29 663Q32 663 39 659Q46 654 49 652Q75 581 90 509T114
364T125 217T125 68Q126 66 127 62T130 54T133 45T134 38Q134 16 122 8Q112 0 92 0H87Q85 1 81 4T76 10Z" />
<glyph unicode="}" glyph-name="braceright" horiz-adv-x="451" d="M211 -231Q183 -234 149 -230T84 -214T30 -177Q7 -154 0 -116Q0 -113 2 -108T7 -97T15 -89T24 -86Q34 -86 39 -92T48 -106T56 -122Q62 -130 68 -134Q77 -139 92 -147T123 -163T150 -176T164 -182Q203
-190 241 -181T308 -149T356 -93T375 -19Q375 -2 369 21T352 68T328 118T300 166T273 209T250 241Q232 263 210 279T169 314T137 354T124 408Q124 427 129 439T134 466Q134 476 131 485T125 503T118 522T115 542Q115 561 117 575T134 605L298 768Q302 772 304 780T307
796T308 812T308 826Q308 856 293 873T255 900T205 911T153 914Q140 914 129 912T106 907T82 903T58 902Q63 889 72 887T92 884T109 881T116 864Q116 849 108 847T87 844Q50 844 29 864T8 918Q8 934 18 943T44 957T80 963T117 964T151 962T172 961Q177 961 189
961T216 961T242 960Q256 960 260 960Q285 951 305 937T341 904T366 862T375 811Q375 779 360 754T323 706T274 664T225 625T187 586T172 542Q172 530 177 524T189 515T208 511T230 509Q237 508 253 508T288 508T323 508T346 509Q360 503 362 496T365 476Q365 470
364 462Q364 454 356 452Q348 451 329 450T289 447T248 444T221 442Q204 440 190 431T172 404Q171 401 180 389T204 361T235 326T269 289T298 255T317 230Q336 199 355 169T389 107T414 42T424 -30Q424 -80 408 -117T363 -180T296 -218T211 -231Z" />
<glyph unicode="~" glyph-name="asciitilde" horiz-adv-x="412" d="M291 449Q265 439 245 444T206 461T169 487T130 512Q102 514 89 503T70 475T65 441T64 415T55 408T28 435Q20 459 23 480T39 517T70 543Q88 554 109 554Q111 555 116 555T134 550T165 536T217
507Q236 496 247 495T274 500Q278 502 284 504T290 507L351 555Q363 554 369 550T378 541T381 531T376 523Q349 501 335 487T313 466T305 457T303 453T301 452T291 449Z" />
<glyph unicode="&#xa0;" glyph-name="nbspace" horiz-adv-x="384" />
<glyph unicode="&#xa1;" glyph-name="exclamdown" horiz-adv-x="153" d="M21 638Q21 614 42 603Q65 592 94 592Q103 592 111 597T124 608T132 623T135 638Q135 647 128 654T110 667T87 676T65 679Q41 679 31 668T21 638ZM51 455Q47 434 46 398T44 319T43 228T44
137T44 57Q44 20 42 -2L89 -8L90 7Q90 21 90 44T91 99T93 163T94 230T95 293T96 345T98 377Q98 379 98 383T98 394T99 405T99 415Q99 421 99 429T99 446T92 459T76 465Q69 465 62 464T51 455Z" />
<glyph unicode="&#xa2;" glyph-name="cent" horiz-adv-x="460" d="M226 -51Q225 -46 225 -34T225 -5Q122 1 71 56T19 223Q19 263 33 301T73 371T133 423T207 450L204 465Q202 473 202 480Q198 518 201 533T211 549T226 540T241 513T252 480T253 451Q272 449 291
444T327 428T354 403T365 365Q365 361 363 349T356 325T347 304T337 294Q337 334 319 363T265 400Q273 360 276 323T281 247T281 163Q280 120 279 68Q280 66 281 63T284 56Q317 54 349 55T413 58Q416 58 423 54T433 49V46Q433 44 433 44T434 43Q438 30 423 23T385
12T333 6T281 0Q278 -11 274 -22T265 -41T254 -55T242 -61H236Q234 -60 231 -57T226 -51ZM76 221Q76 181 87 154T119 107T166 78Q192 68 223 62Q222 94 222 120T221 154Q219 190 220 221V282Q220 312 219 341T214 403Q181 399 156 382T112 339T85 284T76 221Z"
/>
<glyph unicode="&#xa3;" glyph-name="sterling" horiz-adv-x="777" d="M10 87Q10 105 19 114T41 129T70 134T99 135Q119 135 135 135T168 133T201 130T241 125Q259 137 276 165T306 227T328 294T337 352Q337 362 332 366T320 374Q312 376 304 376H290Q272 376
255 373T220 366T184 359T148 356H145Q143 358 140 365T135 375V384Q137 387 144 394T154 404Q161 406 178 409T216 418T254 427T279 433H289Q315 437 332 452T362 490T384 540T405 595T430 649T465 695T518 728T595 740Q624 740 652 731T701 703T736 658T749 600Q749
588 746 576Q742 565 730 565Q722 565 717 573T706 595T693 623T673 652T642 673T597 682Q557 682 529 670T480 637T447 586T423 518Q421 514 420 506T417 490T414 476L413 471L423 460H596Q603 460 607 457T613 449T615 439T616 428Q616 414 612 403T592 392Q582
392 574 394Q566 396 557 404H547Q539 404 531 404T515 404H505Q465 404 440 393T400 361T376 315T360 259T343 197T317 134L337 125Q364 123 394 124T454 121T507 106T548 68Q526 52 500 49T448 46Q412 46 378 52T307 58Q281 58 259 49T217 28T175 7T126 -2Q106
-2 86 3T49 18T21 46T10 87Z" />
<glyph unicode="&#xa4;" glyph-name="currency" horiz-adv-x="633" d="M497 26Q477 42 459 62T420 106Q370 86 315 86Q239 86 185 122Q171 102 159 85T135 54T115 32T99 25Q80 26 80 44Q80 68 98 100Q116 132 141 164Q123 189 113 220T102 290Q102 322 111 350T135
401Q119 417 103 434T72 466T48 496T32 522Q30 530 32 534T39 540T47 543T56 544Q68 540 82 530T113 508T147 481T182 450Q222 480 272 495T375 511Q403 511 428 499T476 466Q496 484 514 498T548 519T573 523T587 501Q565 482 547 463T511 424Q531 394 542 361T554
300Q554 244 530 202T467 132Q492 94 536 56Q532 45 525 36T506 26Q504 26 501 26T497 26ZM150 286Q150 255 161 228T193 179T242 145T302 132Q343 128 383 146T454 194T499 261T507 334T462 399T351 441Q318 441 283 432T218 403T169 354T150 286Z" />
<glyph unicode="&#xa5;" glyph-name="yen" horiz-adv-x="399" d="M35 206Q35 209 39 213T45 217Q73 219 85 220T103 222L107 223H177L184 292L52 304Q40 304 28 309T16 329Q5 331 16 334T54 338T116 341T189 341L194 382L39 736Q40 739 42 744T47 754T54 762T63
766L64 765Q65 765 66 765H68Q91 754 104 733T126 685T141 628T157 569T182 512T224 464Q233 494 246 523T275 583T311 646Q330 676 350 712Q398 733 409 721T394 679L249 387L246 338Q268 336 288 333T322 326T346 315Q354 310 354 302Q354 300 346 293Q338 286
334 283L332 282Q330 281 329 281L243 288L238 226Q255 226 272 224T303 218T328 204Q340 196 344 184L305 164L235 165L224 -3L154 -6L171 166L93 168Q80 168 69 169T51 173T40 184T35 206Z" />
<glyph unicode="&#xa6;" glyph-name="brokenbar" horiz-adv-x="120" d="M83 295Q86 191 87 130T87 35T81 -7T72 -13T58 -2T41 8Q34 54 31 87T25 151T23 215T24 295H83ZM29 328Q30 352 30 385V450Q30 484 30 516T29 572Q29 580 35 583T49 586Q58 586 65 580T77
564T84 545T87 529Q88 508 87 480T84 423T80 368Q80 344 80 326L29 328Z" />
<glyph unicode="&#xa7;" glyph-name="section" horiz-adv-x="527" d="M315 208Q288 207 256 208T193 214T132 229T81 257T46 302Q34 330 36 368Q42 401 68 422T130 454Q98 470 78 498T57 576Q62 608 83 629T136 663T206 677T282 672T357 649T421 608Q454 575 462
554T459 526T423 532Q398 542 365 574Q350 590 325 599T271 613T213 616T162 608T126 589T114 559Q114 530 131 513T177 487T242 475T316 467T390 456T455 435T501 395T518 328Q518 309 512 294T495 265T469 242T437 225Q464 210 481 185T498 120Q498 89 482 67T442
29T388 7T333 0Q295 0 252 2T168 16T94 53Q58 78 40 125Q48 131 55 135T70 135Q94 121 114 108T155 83T200 64T257 57Q278 57 308 57T365 61T411 81T430 126Q430 147 421 161T397 185T361 199T315 208ZM340 416Q281 414 242 411T177 405T137 395T115 380T105 358T97
326Q109 306 126 294T167 276T218 267T278 265Q299 265 328 265T385 269T431 289T451 334Q451 354 443 368T420 391T384 406T340 416Z" />
<glyph unicode="&#xa8;" glyph-name="dieresis" horiz-adv-x="407" d="M69 488Q69 492 74 500T85 517T100 532Q106 538 112 538Q128 538 139 533T158 519T168 501T172 482Q172 476 167 469T154 455T137 444T117 439Q106 439 97 444T82 457T73 473T69 488ZM229
488Q229 492 233 500T245 517T260 532T273 538Q288 538 299 533T317 519T328 501T332 482Q332 476 327 469T315 455T297 444T277 439Q266 439 257 444T242 457T233 473T229 488Z" />
<glyph unicode="&#xa9;" glyph-name="copyright" horiz-adv-x="684" d="M35 276Q33 305 41 337T65 402T101 463T147 515T200 552T257 568Q313 575 366 566T466 535T552 476T618 394T658 292T668 173Q661 139 641 114T591 70T526 39T454 19T383 5T321 -4Q259 -4
207 16T116 73T57 161T35 276ZM83 280Q82 234 102 195T156 125T230 75T312 50Q326 50 353 53T414 65T484 84T550 111T598 146T617 190Q622 253 603 304T548 393T467 458T375 499T286 516Q244 518 217 506Q197 498 179 482T145 445T119 401T100 356T88 313T83 280ZM172
250Q173 283 181 314T208 373T255 423T328 460Q348 460 370 456T413 442T446 415T459 374Q459 369 457 357T450 333T441 311T430 302Q430 349 404 380Q378 412 328 412Q290 397 270 379T240 340T231 296T230 248Q234 209 245 188T275 156T318 146T370 147T429 152T494
153Q498 153 505 150T513 143V141V139L514 138Q514 121 498 112T461 98T419 93T389 92Q333 96 295 101T230 123T190 168T172 250Z" />
<glyph unicode="&#xaa;" glyph-name="ordfeminine" horiz-adv-x="273" d="M18 325Q19 334 23 346T37 369T60 390T93 402T137 403T192 387Q192 387 192 392V397Q192 411 185 425T166 452T141 471T116 478Q111 478 108 477T101 473T94 468T86 466Q85 466 85 467Q85
468 84 468Q83 469 82 470T80 473Q80 483 83 490T91 501T104 508T119 510Q139 508 156 497T189 469T215 430T233 385T244 337Q247 312 244 291Q244 291 242 291T236 291T231 292L229 293Q219 318 206 334T181 359T158 371T140 376Q133 376 123 375T102 372T80 364T61
353T47 338T42 317Q42 304 51 295T74 280T100 272T123 270Q136 270 149 271T175 275T201 279T226 281Q227 281 229 281T235 281T240 280T243 280Q247 279 247 276T248 269Q248 266 242 262T226 254T204 246T181 240T161 235T147 233Q127 233 104 237T62 251T31
279T18 325Z" />
<glyph unicode="&#xab;" glyph-name="guillemotleft" horiz-adv-x="774" d="M77 183Q79 184 93 194T130 220T181 256T237 296T292 334T337 364Q347 372 360 380T388 396T416 410T442 422Q444 420 448 417T457 409T466 400T471 394Q471 393 459 384T428 363T387
335T344 306T308 282T289 268Q267 253 243 239T194 208T147 173T106 134Q108 130 121 126T152 117T190 110T229 103T261 98T279 96Q292 94 318 90T370 78T415 57T435 24Q435 0 409 0Q399 0 389 4T368 12T347 22T327 29Q319 31 299 33L252 38Q225 41 194 45T131
53T73 64T29 78T5 95T10 116L77 183ZM322 248Q323 249 337 259T374 286T425 321T481 361T536 399T580 430Q602 445 632 461Q662 478 686 488Q688 486 692 482T701 474T709 466T715 459Q715 458 703 449T672 428T630 400T588 371T552 347T533 334Q511 319 487 305T439
273T391 238T350 200Q352 196 364 192T395 183T434 175T473 168T505 163T523 161Q536 159 561 156T613 144T659 123T679 89Q678 65 652 65Q642 65 632 69T611 77L591 87Q582 92 572 94Q564 96 544 98L496 104Q469 107 438 110T376 119T318 130T274 144T250 161T254
181L322 248Z" />
<glyph unicode="&#xac;" glyph-name="logicalnot" horiz-adv-x="378" d="M304 350Q299 355 278 357T226 360T163 358T101 355T53 353T34 353Q34 355 35 364T38 384T43 402T51 410L352 411V342Q352 333 351 321T349 298T346 276T344 261Q324 255 313 256T298 265T295
282T298 304L303 328Q305 340 304 350Z" />
<glyph unicode="&#xad;" glyph-name="hyphen_" horiz-adv-x="384" d="M254 327Q268 327 284 327T314 321T337 307T346 279Q346 258 327 258Q305 258 287 263T245 269Q216 269 188 266T130 258T73 251T15 247Q15 271 26 285T55 307T95 319T142 322T189 323T230
326H233Q236 326 240 326T248 327H254Z" />
<glyph unicode="&#xae;" glyph-name="registered" horiz-adv-x="725" d="M37 294Q35 323 43 355T67 420T103 481T149 533T202 570T259 586Q315 593 368 584T467 553T553 494T619 412T660 311T670 192Q663 158 643 132T592 88T527 58T455 37T384 23T322 14Q260
14 208 34T118 91T59 179T37 294ZM85 298Q84 252 104 213T157 144T232 94Q274 74 314 68Q323 68 339 69T375 74T419 83T466 95Q444 107 420 124T371 159T326 196T290 227Q299 198 304 175T310 137T302 116T274 114Q272 110 268 123T259 160T249 216T241 279T238
338Q238 365 244 381Q252 385 261 385T278 383T289 374T292 362Q292 360 293 352T295 335T298 318T302 307Q317 308 338 308T381 309T419 318T440 341L448 381Q439 399 426 407T394 418T352 419Q330 418 302 418Q282 418 260 417T220 409T190 389T178 353Q172 353
167 360T158 375T152 392T149 406Q149 422 164 434Q179 446 195 452Q217 455 233 457T265 460T295 462T328 463Q356 463 389 458T451 440T499 408T518 360Q518 335 503 318T464 289T412 272T359 264T317 262Q307 263 302 264Q348 230 381 205Q415 179 439 161T480
130T509 110Q531 119 551 129T587 152T610 178T619 209Q624 271 604 322T549 412T468 477T376 518T288 534Q246 536 218 524Q187 513 163 484T121 420T95 352T85 298Z" />
<glyph unicode="&#xaf;" glyph-name="overscore" horiz-adv-x="294" d="M206 553Q220 553 236 552T266 547T289 533T298 505Q298 484 280 484Q258 484 239 489T197 495Q168 495 150 492T116 485T81 478T34 474Q34 509 47 524T81 545T129 549T183 552Q184 552 193
552T206 553Z" />
<glyph unicode="&#xb0;" glyph-name="degree" horiz-adv-x="261" d="M8 420Q8 457 19 484T49 529T91 557T137 566Q149 566 159 560T180 543T197 518T210 488T218 457T221 427Q221 393 212 366T186 321T150 293T108 283Q87 283 69 293T37 320T16 363T8 420ZM31
425Q31 405 36 386T51 353T74 331T103 322Q111 321 122 326T146 340T168 363T186 393T194 427T190 462T169 496T126 527Q110 527 94 521T63 502T40 470T31 425Z" />
<glyph unicode="&#xb1;" glyph-name="plusminus" horiz-adv-x="471" d="M296 111Q310 111 335 111T385 109T428 98T447 71Q448 51 428 51Q418 51 399 51T359 52T319 53T288 54Q259 54 231 50T174 42T117 35T58 31Q48 50 59 62T94 82T151 95T220 104Q219 114 219
122T220 136Q219 143 217 159T211 194T205 228T200 251H190Q170 251 151 248T113 242T75 235T37 232Q22 232 19 239T15 256Q15 269 18 273Q22 276 37 280Q45 282 65 286T109 294T152 304Q174 308 182 309Q187 310 188 314T191 324T192 334T191 342Q191 358 188
373T181 405T174 436T171 469V472Q173 475 180 482T190 491H193L195 492L196 491Q197 491 198 491H200Q204 488 211 481L220 472L258 338L267 328L284 325Q301 323 324 320T371 313T412 309Q415 309 422 309T438 306T453 300T459 290Q459 287 456 281T447 268T438
256Q432 251 430 251H278V110Q282 110 287 110T296 111Z" />
<glyph unicode="&#xb2;" glyph-name="twosuperior" horiz-adv-x="304" d="M153 239Q133 239 115 236T77 232Q67 232 55 235T34 244T17 260T7 285Q6 294 9 299T19 308T32 313T43 314Q56 314 68 310T91 300T115 290T140 285Q151 285 161 293T178 315T192 346T202
379T208 410T210 432Q210 440 208 456T201 488T188 516T168 528Q157 528 151 519T142 499T136 477T126 465Q118 471 117 480T116 498Q116 510 120 520T131 539T149 552T171 556Q189 556 202 544T224 512T237 472T241 436T241 408T238 385T231 361T220 331Q216 328
211 321T200 307T192 292T188 279Q188 273 194 270T208 265T225 262T242 258T256 252T262 238Q262 232 256 227Q252 221 245 221Q234 221 222 223T199 229T176 236T153 239Z" />
<glyph unicode="&#xb3;" glyph-name="threesuperior" horiz-adv-x="209" d="M-4 348Q-5 349 -5 350V354Q-5 364 0 371T14 378Q18 378 25 367T46 342T77 317T120 306Q130 306 139 307T156 313T168 325T173 344Q173 370 162 386T134 414T97 430T60 441T32 450T20
463Q20 465 20 465T21 466Q22 468 25 472T31 479Q36 480 46 482T69 487T95 496T118 507T135 523T142 543Q142 553 136 558T122 567T105 572T91 573T75 573T56 571T39 567T31 561V548Q19 548 12 554T5 575Q5 582 8 586T15 595T25 601T36 603H112Q124 603 134 597T152
580T164 556T168 530Q168 518 161 509T145 494T129 480T121 463Q121 463 122 462V461Q139 454 153 443T179 416T197 381Q204 363 204 342Q204 323 197 310T178 288T153 275T125 270Q112 272 100 273T74 282T41 304T-4 348Z" />
<glyph unicode="&#xb4;" glyph-name="acute" horiz-adv-x="185" d="M9 427Q9 448 25 467T63 503T110 535Q132 550 148 562Q169 552 167 538T146 505T97 461T34 403Q19 403 14 408T9 427Z" />
<glyph unicode="&#xb5;" glyph-name="mu" horiz-adv-x="514" d="M384 145Q374 134 363 116T335 81T292 50T227 31Q184 40 156 52T110 79T82 112Q72 128 70 146L68 -58L15 -64L17 357Q9 411 20 441T46 480T73 477T76 433Q74 429 73 421T71 403T69 386T68 375Q68
354 72 326T84 266T106 205T137 150T178 111T230 96Q248 96 271 113T314 155T349 206T364 250Q364 260 364 283T365 332T365 381T364 413Q370 423 377 428T394 434Q406 434 414 418T427 377T434 323T437 267T439 220T442 192Q447 172 456 147T475 99T491 56T498
26Q498 11 490 8T468 5Q450 3 441 14T425 45T409 90T384 145Z" />
<glyph unicode="&#xb6;" glyph-name="paragraph" horiz-adv-x="423" d="M330 -15Q325 12 324 53T322 139T324 231T326 317T322 384Q318 411 310 418Q306 420 299 416T289 415Q284 369 281 323T277 232T275 149T276 79T279 28T283 3Q283 -8 272 -11T244 -15Q233
-15 229 5T223 57T223 125T224 194T223 247T212 270Q188 274 165 273T120 270T80 269T48 279T27 305T20 356Q20 389 30 418T59 471T104 507T165 520Q201 520 232 522T289 523T333 515T359 491Q367 464 373 424T382 338T387 242T387 147T382 64T371 2T354 -28T330
-15Z" />
<glyph unicode="&#xb7;" glyph-name="middot" horiz-adv-x="218" d="M50 238Q50 243 56 253T70 273T86 291T101 298Q120 298 134 292T157 276T170 254T175 232Q175 225 169 216T153 199T131 186T106 180Q92 180 82 187T65 203T54 221T50 238Z" />
<glyph unicode="&#xb8;" glyph-name="cedilla" horiz-adv-x="456" d="M154 -216Q160 -211 165 -210T178 -208Q194 -208 209 -217T238 -238T265 -258T294 -268Q310 -268 324 -268T347 -265T362 -250T368 -214Q369 -191 361 -178T338 -158T307 -148T270 -141T233
-131T201 -112T179 -78T169 -21Q171 5 175 16T187 27T201 18T212 0T218 -20Q218 -30 214 -34Q214 -66 229 -79T268 -99T318 -108T368 -121T406 -154T422 -219Q422 -243 409 -261T377 -290T335 -308T291 -314Q262 -314 243 -306T210 -284T183 -253T154 -216Z" />
<glyph unicode="&#xb9;" glyph-name="onesuperior" horiz-adv-x="202" d="M100 235Q100 237 100 240T100 246T99 253T99 257Q99 264 100 276T102 304T105 337T107 370T109 398T110 418Q110 422 110 426T109 433T106 440Q102 442 97 444Q94 441 87 434T72 416T54
395T34 375T16 360T1 354Q-15 354 -15 371V375Q-14 376 -13 378T-9 384T-5 389T-2 393L123 521Q129 526 132 536T138 557T142 580T148 601T156 617T168 623Q173 623 176 623T181 617Q181 616 181 613T181 606T182 599T182 594Q182 592 181 575T176 530T169 470T159
402T150 336T140 278T129 237T120 221Q113 221 109 224T100 235Z" />
<glyph unicode="&#xba;" glyph-name="ordmasculine" horiz-adv-x="261" d="M8 420Q8 457 19 484T49 529T91 557T137 566Q149 566 159 560T180 543T197 518T210 488T218 457T221 427Q221 393 212 366T186 321T150 293T108 283Q87 283 69 293T37 320T16 363T8 420ZM31
425Q31 405 36 386T51 353T74 331T103 322Q111 321 122 326T146 340T168 363T186 393T194 427T190 462T169 496T126 527Q110 527 94 521T63 502T40 470T31 425Z" />
<glyph unicode="&#xbb;" glyph-name="guillemotright" horiz-adv-x="675" d="M28 34Q30 43 47 58T90 92T147 132T209 175T265 217T307 256T324 288Q326 302 308 308Q290 309 264 314T208 330T148 354T93 383T51 413T29 442Q29 443 29 446T28 452Q28 465 38 468Q46
472 58 472Q74 472 85 465T107 449T128 429T154 413Q206 393 266 374T385 346Q401 341 403 332T405 310Q409 292 403 277T386 250T362 226T337 202Q332 198 309 181T256 141T191 94T127 48T77 13T52 -1Q35 -1 32 9T28 34ZM256 59Q259 71 287 93T355 143T437 199T509
255T550 302T536 332Q518 333 492 339T436 355T376 378T322 407T280 437T257 466Q257 467 257 471T256 476Q256 488 266 492Q274 496 286 496Q302 496 313 489T335 473T356 454T382 438Q434 418 494 398Q555 378 613 370Q629 364 631 355T633 334Q637 316 631 302T614
275T590 250T565 226Q559 222 537 205T484 166T419 119T355 73T305 38T280 24Q263 24 260 34T256 59Z" />
<glyph unicode="&#xbc;" glyph-name="onequarter" horiz-adv-x="642" d="M129 311Q129 312 129 315T129 321T129 328T129 333Q129 339 129 351T131 379T134 411T136 443T138 471T139 490Q139 494 139 498T138 505T134 512Q131 514 126 515Q123 513 117 506T102
488T85 468T66 448T49 434T34 428Q18 428 18 444V448Q20 449 21 451T25 457T28 462T31 466L152 591Q157 596 160 606T165 627T170 649T175 670T183 685T195 691Q199 691 202 691T207 685Q207 684 207 681T207 674T208 667T208 663Q208 661 207 644T202 600T195
541T186 475T177 409T167 353T157 313T148 297Q142 297 138 300T129 311ZM137 12Q137 26 142 47T154 90T168 132T180 164L299 624Q301 638 303 659T309 701T319 739T334 760Q341 758 344 753T348 741T349 727T348 713Q348 698 342 658T324 563T297 444T266 314T233
188T202 81T176 6T159 -23Q149 -23 143 -11T137 12ZM516 128Q506 123 494 116T467 103T439 94T411 92Q383 92 364 105T333 139T316 181T311 221Q311 241 313 257T320 288T331 320T346 357Q348 363 354 366T369 369T383 368T388 359Q388 343 381 327T367 294T352
260T345 224Q345 211 349 196T361 168T382 147T414 138Q438 138 458 148T494 173T522 205T542 238T555 264Q559 274 561 274Q578 274 584 269Q589 264 589 255Q589 243 586 228T578 197T571 165T568 136Q568 122 570 107T575 78T580 49T582 20Q582 8 574 0T550
-9Q541 -9 537 1T531 26T529 59T529 92T526 118T516 128Z" />
<glyph unicode="&#xbd;" glyph-name="onehalf" horiz-adv-x="580" d="M131 232Q131 234 131 237T131 245T130 254T130 258Q130 266 131 281T133 316T135 355T138 395T141 428T142 452Q142 457 142 462T141 471T137 479Q133 482 127 483Q124 480 117 471T101 450T81
425T60 401T41 383T24 375Q6 375 6 395V400Q8 402 9 405T13 411T18 418T21 423L156 576Q162 583 165 595T171 621T176 649T182 674T190 692T204 700Q209 700 212 699T218 692Q218 691 218 687T218 679T219 670T219 665Q219 662 218 641T213 588T205 516T195 434T184
353T173 284T162 234T152 215Q145 215 140 218T131 232ZM136 -13Q136 1 141 21T153 64T168 107T181 138L307 596Q309 610 311 631T318 673T328 711T344 732Q351 730 354 725T358 713T360 699T359 686Q359 670 352 630T333 536T305 417T272 287T237 162T204 55T177
-19T158 -48Q148 -48 142 -36T136 -13ZM418 25Q395 25 374 21T329 17Q317 17 304 20T278 31T258 51T247 81Q246 92 250 99T261 111T276 116T290 117Q304 117 318 112T346 100T374 87T403 81Q416 81 427 91T448 118T464 156T475 197T482 234T485 262Q485 272 483
292T474 331T459 364T436 379Q422 379 416 368T405 344T398 318T387 302Q377 309 376 321T374 343Q374 358 379 371T392 394T413 409T439 414Q461 414 476 399T502 360T517 311T522 266T521 232T517 203T509 174T496 138Q492 135 486 127T474 108T464 89T460 74Q460
67 466 63T482 56T502 53T522 49T539 41T546 24Q546 17 539 10Q534 3 527 3Q513 3 500 6T472 14T445 21T418 25Z" />
<glyph unicode="&#xbe;" glyph-name="threequarters" horiz-adv-x="580" d="M13 349Q12 350 12 351V354Q12 365 17 372T31 380Q35 380 42 368T63 342T94 317T137 305Q147 305 156 306T173 312T185 324T190 345Q190 372 179 389T151 418T114 435T77 446T49 455T37
469Q37 470 37 471T38 472Q39 474 42 478T48 485Q53 487 63 489T86 494T112 503T135 515T152 531T159 553Q159 563 153 569T139 578T122 583T108 584T92 584T73 582T56 578T48 572V558Q36 558 29 565T22 587Q22 593 25 598T32 607T42 613T53 615H129Q141 615 151
608T169 591T181 567T185 539Q185 526 178 517T162 501T146 487T138 469Q138 469 139 468V467Q156 459 170 447T196 419T214 383Q221 365 221 343Q221 323 214 309T195 285T170 272T142 267Q129 269 117 270T91 279T58 303T13 349ZM150 -43Q150 -29 155 -8T167
36T181 79T192 110L311 574Q313 588 315 609T321 651T330 689T346 712Q352 709 355 704T359 692T360 678T360 664Q360 649 354 609T336 513T309 393T278 261T246 134T215 27T189 -49T171 -78Q162 -78 156 -66T150 -43ZM494 165Q485 160 475 152T453 138T430 128T407
126Q383 126 368 140T342 176T328 222T323 265Q323 287 325 304T331 338T340 372T353 412Q354 419 359 422T371 425T383 424T388 415Q388 398 382 380T370 344T358 307T352 269Q352 255 355 239T365 208T383 185T409 175Q429 175 445 186T475 213T499 249T516 284T526
312Q529 322 530 322Q545 322 550 317Q554 312 554 302Q554 289 551 273T545 239T539 205T536 174Q536 158 538 142T542 111T546 80T548 48Q548 35 541 26T522 17Q514 17 511 28T507 55T505 91T505 126T502 154T494 165Z" />
<glyph unicode="&#xbf;" glyph-name="questiondown" horiz-adv-x="279" d="M108 732Q108 717 97 708T66 699Q49 699 42 711T35 736Q35 745 42 755T66 765Q88 765 98 756T108 732ZM220 434Q220 408 210 384T185 337T153 290T121 243T97 194T87 141Q87 97 116 75T201
53Q222 53 246 61Q269 70 281 85Q287 84 289 80T292 71T293 62T292 55Q292 41 282 32T255 16T222 6T189 3Q149 3 119 16T67 51T36 100T25 156Q25 189 38 224T72 294T116 359T158 417Q156 420 153 424T139 432T109 439T56 446Q50 446 46 449T40 457T36 467Q35 473
35 477Q35 485 41 488T59 492T80 493T96 492Q112 492 133 490T174 482T206 464T220 434Z" />
<glyph unicode="&#xc0;" glyph-name="Agrave" horiz-adv-x="576" d="M470 23Q470 40 473 57T480 92T487 128T490 164Q490 192 488 224T478 285Q450 279 421 280T362 286T302 294T242 298Q233 298 214 298T174 297T136 294Q120 292 116 288L106 279Q106 278 106
275T105 266T105 256T104 248Q104 219 108 190T118 132T129 76Q134 48 134 20V10Q119 -4 107 0T86 22T70 67T60 127T56 194T58 260Q56 262 50 268T38 282T26 297Q22 304 20 308L19 310V312Q19 319 22 322T31 326T41 330T49 337Q49 338 49 342T49 350T49 359Q49
362 49 364Q53 406 55 453T64 546T84 634T122 708T183 759T276 778Q320 778 355 757T418 701T466 619T501 520T524 415T539 314T546 226T548 160Q548 141 548 126T547 97T544 66T538 29Q530 18 518 9T490 -1Q477 -1 474 5T470 23ZM446 326Q449 326 453 326T461
331T467 346T472 374Q472 403 467 440T450 518T422 596T380 664T325 712T254 730Q213 730 185 709T140 653T113 575T99 489T95 408T94 346L446 326ZM282 928Q294 918 300 912T312 901T324 890T343 874Q345 872 349 865T353 856Q353 836 346 831Q338 826 324 826Q322
826 319 827T306 835T279 857T234 899Q226 910 220 923T214 943T231 948T282 928Z" />
<glyph unicode="&#xc1;" glyph-name="Aacute" horiz-adv-x="576" d="M470 23Q470 40 473 57T480 92T487 128T490 164Q490 192 488 224T478 285Q450 279 421 280T362 286T302 294T242 298Q233 298 214 298T174 297T136 294Q120 292 116 288L106 279Q106 278 106
275T105 266T105 256T104 248Q104 219 108 190T118 132T129 76Q134 48 134 20V10Q119 -4 107 0T86 22T70 67T60 127T56 194T58 260Q56 262 50 268T38 282T26 297Q22 304 20 308L19 310V312Q19 319 22 322T31 326T41 330T49 337Q49 338 49 342T49 350T49 359Q49
362 49 364Q53 406 55 453T64 546T84 634T122 708T183 759T276 778Q320 778 355 757T418 701T466 619T501 520T524 415T539 314T546 226T548 160Q548 141 548 126T547 97T544 66T538 29Q530 18 518 9T490 -1Q477 -1 474 5T470 23ZM446 326Q449 326 453 326T461
331T467 346T472 374Q472 403 467 440T450 518T422 596T380 664T325 712T254 730Q213 730 185 709T140 653T113 575T99 489T95 408T94 346L446 326ZM143 821Q143 842 159 861T197 897T244 929Q266 944 282 956Q303 946 301 932T280 899T231 855T168 797Q153 797
148 802T143 821Z" />
<glyph unicode="&#xc2;" glyph-name="Acircumflex" horiz-adv-x="576" d="M470 23Q470 40 473 57T480 92T487 128T490 164Q490 192 488 224T478 285Q450 279 421 280T362 286T302 294T242 298Q233 298 214 298T174 297T136 294Q120 292 116 288L106 279Q106 278
106 275T105 266T105 256T104 248Q104 219 108 190T118 132T129 76Q134 48 134 20V10Q119 -4 107 0T86 22T70 67T60 127T56 194T58 260Q56 262 50 268T38 282T26 297Q22 304 20 308L19 310V312Q19 319 22 322T31 326T41 330T49 337Q49 338 49 342T49 350T49 359Q49
362 49 364Q53 406 55 453T64 546T84 634T122 708T183 759T276 778Q320 778 355 757T418 701T466 619T501 520T524 415T539 314T546 226T548 160Q548 141 548 126T547 97T544 66T538 29Q530 18 518 9T490 -1Q477 -1 474 5T470 23ZM446 326Q449 326 453 326T461
331T467 346T472 374Q472 403 467 440T450 518T422 596T380 664T325 712T254 730Q213 730 185 709T140 653T113 575T99 489T95 408T94 346L446 326ZM254 879Q235 855 214 832T173 796T137 786T112 817Q140 843 160 859T193 891T216 928T234 985Q236 993 242 993T255
994Q269 994 276 988T292 966Q298 956 309 944T331 918T353 892T370 871Q377 860 380 853T386 841T389 829T390 813Q390 799 387 791T370 783Q355 783 343 794T317 820T289 851T254 879Z" />
<glyph unicode="&#xc3;" glyph-name="Atilde" horiz-adv-x="576" d="M470 23Q470 40 473 57T480 92T487 128T490 164Q490 192 488 224T478 285Q450 279 421 280T362 286T302 294T242 298Q233 298 214 298T174 297T136 294Q120 292 116 288L106 279Q106 278 106
275T105 266T105 256T104 248Q104 219 108 190T118 132T129 76Q134 48 134 20V10Q119 -4 107 0T86 22T70 67T60 127T56 194T58 260Q56 262 50 268T38 282T26 297Q22 304 20 308L19 310V312Q19 319 22 322T31 326T41 330T49 337Q49 338 49 342T49 350T49 359Q49
362 49 364Q53 406 55 453T64 546T84 634T122 708T183 759T276 778Q320 778 355 757T418 701T466 619T501 520T524 415T539 314T546 226T548 160Q548 141 548 126T547 97T544 66T538 29Q530 18 518 9T490 -1Q477 -1 474 5T470 23ZM446 326Q449 326 453 326T461
331T467 346T472 374Q472 403 467 440T450 518T422 596T380 664T325 712T254 730Q213 730 185 709T140 653T113 575T99 489T95 408T94 346L446 326ZM350 819Q324 809 304 814T265 831T228 857T189 882Q161 884 148 873T129 845T124 811T123 785T114 778T87 805Q79
829 82 850T98 887T129 913Q147 924 168 924Q170 925 175 925T193 920T224 906T276 877Q295 866 306 865T333 870L343 873Q349 875 349 877L410 925Q422 924 428 920T437 911T440 901T435 893Q408 871 394 857T372 836T364 827T362 823T360 822T350 819Z" />
<glyph unicode="&#xc4;" glyph-name="Adieresis" horiz-adv-x="576" d="M470 23Q470 40 473 57T480 92T487 128T490 164Q490 192 488 224T478 285Q450 279 421 280T362 286T302 294T242 298Q233 298 214 298T174 297T136 294Q120 292 116 288L106 279Q106 278
106 275T105 266T105 256T104 248Q104 219 108 190T118 132T129 76Q134 48 134 20V10Q119 -4 107 0T86 22T70 67T60 127T56 194T58 260Q56 262 50 268T38 282T26 297Q22 304 20 308L19 310V312Q19 319 22 322T31 326T41 330T49 337Q49 338 49 342T49 350T49 359Q49
362 49 364Q53 406 55 453T64 546T84 634T122 708T183 759T276 778Q320 778 355 757T418 701T466 619T501 520T524 415T539 314T546 226T548 160Q548 141 548 126T547 97T544 66T538 29Q530 18 518 9T490 -1Q477 -1 474 5T470 23ZM446 326Q449 326 453 326T461
331T467 346T472 374Q472 403 467 440T450 518T422 596T380 664T325 712T254 730Q213 730 185 709T140 653T113 575T99 489T95 408T94 346L446 326ZM140 876Q140 880 145 888T156 905T171 920Q177 926 183 926Q199 926 210 921T229 907T239 889T243 870Q243 864
238 857T225 843T208 832T188 827Q177 827 168 832T153 845T144 861T140 876ZM300 876Q300 880 304 888T316 905T331 920T344 926Q359 926 370 921T388 907T399 889T403 870Q403 864 398 857T386 843T368 832T348 827Q337 827 328 832T313 845T304 861T300 876Z"
/>
<glyph unicode="&#xc5;" glyph-name="Aring" horiz-adv-x="576" d="M164 847Q164 869 174 885T200 913T236 929T277 935Q293 935 306 927T330 905T346 878Q352 862 352 850Q352 830 343 814T320 787Q312 781 304 776Q332 772 356 758Q391 737 418 701T466 619T501
520T524 415T539 314T546 226T548 160Q548 141 548 126T547 97T544 66T538 29Q530 18 518 9T490 -1Q477 -1 474 5T470 23Q470 40 473 57T480 92T487 128T490 164Q490 192 488 224T478 285Q450 279 421 280T362 286T302 294T242 298Q233 298 214 298T174 297T136
294Q120 292 116 288L106 279Q106 278 106 275T105 266T105 256T104 248Q104 219 108 190T118 132T129 76Q134 48 134 20V10Q119 -4 107 0T86 22T70 67T60 127T56 194T58 260Q56 262 50 268T38 282T26 297Q22 304 20 308L19 310V312Q19 319 22 322T31 326T41 330T49
337V364Q53 406 55 453T64 546T84 634T122 708T183 759Q197 767 213 771Q199 776 189 786Q164 809 164 847ZM446 326Q449 326 453 326T461 331T467 346T472 374Q472 403 467 440T450 518T422 596T380 664T325 712T254 730Q213 730 185 709T140 653T113 575T99 489T95
408T94 346L446 326ZM196 845Q196 820 211 808T253 796Q260 795 270 799T291 810T309 829T317 852T306 876Q294 889 268 900Q254 900 242 898T219 889T202 872T196 845Z" />
<glyph unicode="&#xc6;" glyph-name="AE" horiz-adv-x="984" d="M566 572Q562 572 559 573Q563 564 563 560V378Q568 370 592 370T649 373T719 383T788 395T842 404Q864 408 866 406Q869 406 877 407T895 409T913 410T925 410Q925 386 899 371T832 348T746 336T658
329T589 322T559 310Q553 294 551 275T548 234Q547 226 547 219Q549 184 548 160Q548 141 548 126V122Q549 112 548 102V90Q552 80 566 75T595 69T625 68T647 69Q681 69 715 72T783 79T850 86T918 90H923Q925 89 929 88T938 85T946 82T952 80Q954 79 958 76T962
70Q962 51 941 39T888 20T818 8T745 3T685 2H652Q612 2 581 9Q555 15 536 28Q528 18 517 8Q505 -1 490 -1Q477 -1 474 5T470 23Q470 40 473 57T480 92T487 128Q490 142 490 155V164Q490 192 488 224T478 285Q450 279 421 280T362 286T302 294T242 298Q233 298 214
298T174 297T136 294Q120 292 116 288L106 279Q106 278 106 275T105 266T105 256T104 248Q104 219 108 190T118 132T129 76Q134 48 134 20V10Q119 -4 107 0T86 22T70 67T60 127T56 194T58 260Q56 262 50 268T38 282T26 297Q22 304 20 308L19 310V312Q19 319 22
322T31 326T41 330T49 337V364Q53 406 55 453T64 546T84 634T122 708T183 759T276 778Q320 778 355 757T418 701T466 619T501 520L506 503V598Q506 614 509 622T526 634T564 636T631 634T736 630T887 630Q897 626 907 621T926 610T939 594T945 572Q945 569 942
565T935 562L887 581L566 572ZM446 326Q449 326 453 326T461 331T467 346T472 374Q472 403 467 440T450 518T422 596T380 664T325 712T254 730Q213 730 185 709T140 653T113 575T99 489T95 408T94 346L446 326Z" />
<glyph unicode="&#xc7;" glyph-name="Ccedilla" horiz-adv-x="528" d="M131 -216Q137 -211 142 -210T155 -208Q171 -208 186 -217T216 -238T243 -258T272 -268T302 -268T325 -265T339 -250T345 -214Q346 -191 338 -178T316 -158T284 -148T248 -141T211 -131T179
-112T156 -78T146 -21Q147 -2 150 8Q146 10 142 12Q116 26 96 47T61 97T37 157T23 219T19 277Q19 317 32 360T68 447T122 529T192 598T272 646Q314 663 356 663Q380 663 392 645T404 605Q404 592 399 575T384 542T362 514T334 502Q334 512 337 521T345 539T353
557T356 577Q356 591 345 593T322 596Q320 596 314 596Q310 596 308 596Q262 578 218 549T140 481T86 396T66 296Q66 262 72 222T95 147T138 89T207 66Q241 66 274 72T341 86T408 100T476 106Q484 106 492 104T500 92Q500 87 494 80T479 65T462 54T452 49L221 0Q219
0 213 0T202 -1Q196 -1 190 0Q194 -10 195 -20T192 -34Q192 -66 207 -79T245 -99T295 -108T345 -121T383 -154T399 -219Q399 -243 387 -261T355 -290T312 -308Q288 -314 268 -314Q239 -314 220 -306T187 -284T160 -253T131 -216Z" />
<glyph unicode="&#xc8;" glyph-name="Egrave" horiz-adv-x="537" d="M94 569Q90 569 87 570Q92 560 92 556V375Q97 367 121 367T178 371T248 380T317 392T370 402Q392 406 394 404Q397 404 405 404T424 405T442 406T453 407Q453 383 427 368T360 345T274 333T187
325T118 318Q89 316 87 308Q81 292 79 272T76 232T75 191T76 154Q76 150 76 140T76 120T76 100T76 87Q80 77 94 72T124 66T154 65Q170 66 176 66Q210 66 244 69T311 76T378 83T446 87H452Q454 86 458 85T466 82T474 78Q478 76 480 76Q482 75 486 72Q490 70 490
68Q490 49 469 37T416 17T346 6T273 1T213 -1T181 -1Q141 -1 111 6T60 29T29 74Q19 104 19 146Q19 184 24 222T30 299Q30 315 25 326T20 350V356Q22 358 27 365T34 375V596Q34 612 37 620T54 631T92 633T159 630T264 627Q328 626 416 627Q426 623 436 619T454 607T468
591T473 569Q473 566 470 562T464 559L416 578L94 569ZM258 791Q270 781 276 775T288 764T300 753T319 737Q321 735 325 728T329 719Q329 699 322 694Q314 689 300 689Q298 689 295 690T282 698T255 720T210 762Q202 773 196 786T190 806T207 811T258 791Z" />
<glyph unicode="&#xc9;" glyph-name="Eacute" horiz-adv-x="537" d="M94 569Q90 569 87 570Q92 560 92 556V375Q97 367 121 367T178 371T248 380T317 392T370 402Q392 406 394 404Q397 404 405 404T424 405T442 406T453 407Q453 383 427 368T360 345T274 333T187
325T118 318Q89 316 87 308Q81 292 79 272T76 232T75 191T76 154Q76 150 76 140T76 120T76 100T76 87Q80 77 94 72T124 66T154 65Q170 66 176 66Q210 66 244 69T311 76T378 83T446 87H452Q454 86 458 85T466 82T474 78Q478 76 480 76Q482 75 486 72Q490 70 490
68Q490 49 469 37T416 17T346 6T273 1T213 -1T181 -1Q141 -1 111 6T60 29T29 74Q19 104 19 146Q19 184 24 222T30 299Q30 315 25 326T20 350V356Q22 358 27 365T34 375V596Q34 612 37 620T54 631T92 633T159 630T264 627Q328 626 416 627Q426 623 436 619T454 607T468
591T473 569Q473 566 470 562T464 559L416 578L94 569ZM165 672Q165 693 181 712T219 748T266 780Q288 795 304 807Q325 797 323 783T302 750T253 706T190 648Q175 648 170 653T165 672Z" />
<glyph unicode="&#xca;" glyph-name="Ecircumflex" horiz-adv-x="537" d="M94 569Q90 569 87 570Q92 560 92 556V375Q97 367 121 367T178 371T248 380T317 392T370 402Q392 406 394 404Q397 404 405 404T424 405T442 406T453 407Q453 383 427 368T360 345T274
333T187 325T118 318Q89 316 87 308Q81 292 79 272T76 232T75 191T76 154Q76 150 76 140T76 120T76 100T76 87Q80 77 94 72T124 66T154 65Q170 66 176 66Q210 66 244 69T311 76T378 83T446 87H452Q454 86 458 85T466 82T474 78Q478 76 480 76Q482 75 486 72Q490
70 490 68Q490 49 469 37T416 17T346 6T273 1T213 -1T181 -1Q141 -1 111 6T60 29T29 74Q19 104 19 146Q19 184 24 222T30 299Q30 315 25 326T20 350V356Q22 358 27 365T34 375V596Q34 612 37 620T54 631T92 633T159 630T264 627Q328 626 416 627Q426 623 436 619T454
607T468 591T473 569Q473 566 470 562T464 559L416 578L94 569ZM272 788Q253 764 232 741T191 705T155 695T130 726Q158 752 178 768T211 800T234 837T252 894Q254 902 260 902T273 903Q287 903 294 897T310 875Q316 865 327 853T349 827T371 801T388 780Q395 769
398 762T404 750T407 738T408 722Q408 708 405 700T388 692Q373 692 361 703T335 729T307 760T272 788Z" />
<glyph unicode="&#xcb;" glyph-name="Edieresis" horiz-adv-x="537" d="M94 569Q90 569 87 570Q92 560 92 556V375Q97 367 121 367T178 371T248 380T317 392T370 402Q392 406 394 404Q397 404 405 404T424 405T442 406T453 407Q453 383 427 368T360 345T274 333T187
325T118 318Q89 316 87 308Q81 292 79 272T76 232T75 191T76 154Q76 150 76 140T76 120T76 100T76 87Q80 77 94 72T124 66T154 65Q170 66 176 66Q210 66 244 69T311 76T378 83T446 87H452Q454 86 458 85T466 82T474 78Q478 76 480 76Q482 75 486 72Q490 70 490
68Q490 49 469 37T416 17T346 6T273 1T213 -1T181 -1Q141 -1 111 6T60 29T29 74Q19 104 19 146Q19 184 24 222T30 299Q30 315 25 326T20 350V356Q22 358 27 365T34 375V596Q34 612 37 620T54 631T92 633T159 630T264 627Q328 626 416 627Q426 623 436 619T454 607T468
591T473 569Q473 566 470 562T464 559L416 578L94 569ZM133 736Q133 740 138 748T149 765T164 780Q170 786 176 786Q192 786 203 781T222 767T232 749T236 730Q236 724 231 717T218 703T201 692T181 687Q170 687 161 692T146 705T137 721T133 736ZM293 736Q293
740 297 748T309 765T324 780T337 786Q352 786 363 781T381 767T392 749T396 730Q396 724 391 717T379 703T361 692T341 687Q330 687 321 692T306 705T297 721T293 736Z" />
<glyph unicode="&#xcc;" glyph-name="Igrave" horiz-adv-x="172" d="M96 38Q91 75 87 115T78 197T69 278Q64 320 58 356Q55 371 48 396T33 449T21 507T15 560Q27 576 39 566T63 529T86 459T107 368T125 269T140 173T150 93T154 40Q154 34 154 28T153 17T148 7T134
0Q128 -2 122 3T110 16T101 29T96 38ZM48 762Q60 752 66 746T78 735T90 724T109 708Q111 706 115 699T119 690Q119 670 112 665Q104 660 90 660Q88 660 85 661T72 669T45 691T0 733Q-8 744 -14 757T-20 777T-3 782T48 762Z" />
<glyph unicode="&#xcd;" glyph-name="Iacute" horiz-adv-x="172" d="M96 38Q91 75 87 115T78 197T69 278Q64 320 58 356Q55 371 48 396T33 449T21 507T15 560Q27 576 39 566T63 529T86 459T107 368T125 269T140 173T150 93T154 40Q154 34 154 28T153 17T148 7T134
0Q128 -2 122 3T110 16T101 29T96 38ZM-25 622Q-25 643 -9 662T29 698T76 730Q98 745 114 757Q135 747 133 733T112 700T63 656T0 598Q-15 598 -20 603T-25 622Z" />
<glyph unicode="&#xce;" glyph-name="Icircumflex" horiz-adv-x="172" d="M96 38Q91 75 87 115T78 197T69 278Q64 320 58 356Q55 371 48 396T33 449T21 507T15 560Q27 576 39 566T63 529T86 459T107 368T125 269T140 173T150 93T154 40Q154 34 154 28T153 17T148
7T134 0Q128 -2 122 3T110 16T101 29T96 38ZM92 788Q73 764 52 741T11 705T-25 695T-50 726Q-22 752 -2 768T31 800T54 837T72 894Q74 902 80 902T93 903Q107 903 114 897T130 875Q136 865 147 853T169 827T191 801T208 780Q215 769 218 762T224 750T227 738T228
722Q228 708 225 700T208 692Q193 692 181 703T155 729T127 760T92 788Z" />
<glyph unicode="&#xcf;" glyph-name="Idieresis" horiz-adv-x="172" d="M96 38Q91 75 87 115T78 197T69 278Q64 320 58 356Q55 371 48 396T33 449T21 507T15 560Q27 576 39 566T63 529T86 459T107 368T125 269T140 173T150 93T154 40Q154 34 154 28T153 17T148
7T134 0Q128 -2 122 3T110 16T101 29T96 38ZM-107 649Q-107 653 -102 661T-91 678T-76 693Q-70 699 -64 699Q-48 699 -37 694T-18 680T-8 662T-4 643Q-4 637 -9 630T-22 616T-39 605T-59 600Q-70 600 -79 605T-94 618T-103 634T-107 649ZM53 649Q53 653 57 661T69
678T84 693T97 699Q112 699 123 694T141 680T152 662T156 643Q156 637 151 630T139 616T121 605T101 600Q90 600 81 605T66 618T57 634T53 649Z" />
<glyph unicode="&#xd0;" glyph-name="Eth" horiz-adv-x="759" d="M463 375Q477 375 493 375T524 369T547 354T556 326Q556 306 537 306Q515 306 497 311T454 317Q437 317 421 316T386 312Q390 286 394 270T401 242T406 221T408 201T408 175T404 136Q404 130 404
124T402 111T394 100T380 96Q360 86 354 98T347 138T346 210T338 305Q310 301 282 298T225 294Q225 314 233 327T255 349T286 362Q306 367 326 369Q324 378 321 397T314 438T306 484T297 530T288 566T279 586Q207 586 164 582T96 571T59 559T38 548L36 547Q34 546
33 546Q31 546 31 547Q30 548 29 548Q28 549 27 551L25 560Q23 564 22 569T20 576V580Q20 594 34 604T70 621T118 632T166 639T204 642T221 644Q272 644 330 633T444 599T552 545T643 470T706 376T730 264Q730 209 713 165T666 88T596 33T511 0T419 -11T326 0Q317
3 304 8T279 21T258 38Q249 50 249 62Q249 70 251 78T264 87Q269 87 289 82T334 69T381 56T413 49H418Q462 49 507 65T589 112T649 181T673 267Q673 303 659 337T622 404T567 463T500 511T429 548T360 569Q360 561 361 546T364 510T368 469T372 429T376 394L378
371Q395 371 411 372T440 374Q441 374 450 374T463 375Z" />
<glyph unicode="&#xd1;" glyph-name="Ntilde" horiz-adv-x="624" d="M29 61Q29 108 32 155T39 248T47 341Q50 388 50 434Q50 460 45 484T39 533V538Q41 539 46 540T58 543T70 546Q75 548 77 548H87Q95 512 108 462T141 360T186 257T246 165T322 100T416 76Q447
76 470 86T509 115T531 159T539 214Q539 253 524 286T490 351T457 413T441 480Q441 494 444 502T461 510Q477 510 493 492T525 446T553 384T576 315T591 252T597 206Q597 163 583 128T544 66T483 25T404 10Q357 10 320 28T253 74T201 135T162 195T135 242T116 260Q103
260 97 251T89 230T86 205T86 184Q86 152 92 125T98 66Q98 59 97 48T92 26T81 7T63 -1Q53 -1 47 6T36 23T31 43T29 61ZM408 603Q382 593 362 598T323 615T286 641T247 666Q219 668 206 657T187 629T182 595T181 569T172 562T145 589Q137 613 140 634T156 671T187
697Q205 708 226 708Q228 709 233 709T251 704T282 690T334 661Q353 650 364 649T391 654L401 657Q407 659 407 661L468 709Q480 708 486 704T495 695T498 685T493 677Q466 655 452 641T430 620T422 611T420 607T418 606T408 603Z" />
<glyph unicode="&#xd2;" glyph-name="Ograve" horiz-adv-x="624" d="M19 279Q17 323 30 361T69 428T130 476Q166 492 209 496Q284 485 352 458T473 389T559 291T596 165Q586 113 555 83T482 37T392 12Q344 5 304 -1Q242 -1 190 19T100 76T41 164T19 279ZM66 284Q65
238 85 198T139 128T213 78T295 52Q309 52 332 54T382 62T436 77T486 100T523 132T538 175Q531 225 508 264T450 333T376 384T297 417T224 434Q190 438 168 434Q137 423 118 405T87 367T71 325T66 284ZM324 702Q336 692 342 686T354 675T366 664T385 648Q387 646
391 639T395 630Q395 610 388 605Q380 600 366 600Q364 600 361 601T348 609T321 631T276 673Q268 684 262 697T256 717T273 722T324 702Z" />
<glyph unicode="&#xd3;" glyph-name="Oacute" horiz-adv-x="624" d="M19 279Q17 323 30 361T69 428T130 476Q166 492 209 496Q284 485 352 458T473 389T559 291T596 165Q586 113 555 83T482 37T392 12Q344 5 304 -1Q242 -1 190 19T100 76T41 164T19 279ZM66 284Q65
238 85 198T139 128T213 78T295 52Q309 52 332 54T382 62T436 77T486 100T523 132T538 175Q531 225 508 264T450 333T376 384T297 417T224 434Q190 438 168 434Q137 423 118 405T87 367T71 325T66 284ZM213 581Q213 602 229 621T267 657T314 689Q336 704 352 716Q373
706 371 692T350 659T301 615T238 557Q223 557 218 562T213 581Z" />
<glyph unicode="&#xd4;" glyph-name="Ocircumflex" horiz-adv-x="624" d="M19 279Q17 323 30 361T69 428T130 476Q166 492 209 496Q284 485 352 458T473 389T559 291T596 165Q586 113 555 83T482 37T392 12Q344 5 304 -1Q242 -1 190 19T100 76T41 164T19 279ZM66
284Q65 238 85 198T139 128T213 78T295 52Q309 52 332 54T382 62T436 77T486 100T523 132T538 175Q531 225 508 264T450 333T376 384T297 417T224 434Q190 438 168 434Q137 423 118 405T87 367T71 325T66 284ZM226 668Q207 644 186 621T145 585T109 575T84 606Q112
632 132 648T165 680T188 717T206 774Q208 782 214 782T227 783Q241 783 248 777T264 755Q270 745 281 733T303 707T325 681T342 660Q349 649 352 642T358 630T361 618T362 602Q362 588 359 580T342 572Q327 572 315 583T289 609T261 640T226 668Z" />
<glyph unicode="&#xd5;" glyph-name="Otilde" horiz-adv-x="624" d="M19 279Q17 323 30 361T69 428T130 476Q166 492 209 496Q284 485 352 458T473 389T559 291T596 165Q586 113 555 83T482 37T392 12Q344 5 304 -1Q242 -1 190 19T100 76T41 164T19 279ZM66 284Q65
238 85 198T139 128T213 78T295 52Q309 52 332 54T382 62T436 77T486 100T523 132T538 175Q531 225 508 264T450 333T376 384T297 417T224 434Q190 438 168 434Q137 423 118 405T87 367T71 325T66 284ZM353 564Q327 554 307 559T268 576T231 602T192 627Q164 629
151 618T132 590T127 556T126 530T117 523T90 550Q82 574 85 595T101 632T132 658Q150 669 171 669Q173 670 178 670T196 665T227 651T279 622Q298 611 309 610T336 615L346 618Q352 620 352 622L413 670Q425 669 431 665T440 656T443 646T438 638Q411 616 397
602T375 581T367 572T365 568T363 567T353 564Z" />
<glyph unicode="&#xd6;" glyph-name="Odieresis" horiz-adv-x="624" d="M19 279Q17 323 30 361T69 428T130 476Q166 492 209 496Q284 485 352 458T473 389T559 291T596 165Q586 113 555 83T482 37T392 12Q344 5 304 -1Q242 -1 190 19T100 76T41 164T19 279ZM66
284Q65 238 85 198T139 128T213 78T295 52Q309 52 332 54T382 62T436 77T486 100T523 132T538 175Q531 225 508 264T450 333T376 384T297 417T224 434Q190 438 168 434Q137 423 118 405T87 367T71 325T66 284ZM180 642Q180 646 185 654T196 671T211 686Q217 692
223 692Q239 692 250 687T269 673T279 655T283 636Q283 630 278 623T265 609T248 598T228 593Q217 593 208 598T193 611T184 627T180 642ZM340 642Q340 646 344 654T356 671T371 686T384 692Q399 692 410 687T428 673T439 655T443 636Q443 630 438 623T426 609T408
598T388 593Q377 593 368 598T353 611T344 627T340 642Z" />
<glyph unicode="&#xd7;" glyph-name="multiply" horiz-adv-x="459" d="M279 66Q265 82 260 90T252 100T249 103T245 108T233 122T206 152Q200 151 194 146T178 128T153 99T116 60Q111 60 105 62T93 67T84 74T80 83Q89 106 101 120T125 145T145 166T154 193Q154
194 154 195T153 197Q136 213 126 223T107 244T86 265T52 295Q50 303 56 309T70 321T86 329T98 332Q120 312 130 300T149 280T166 265T196 246Q216 249 233 260T267 286T296 312T321 328T340 327T353 295Q353 287 341 278T311 256T274 229T239 197Q260 177 269
168T284 150T299 133T328 107Q322 94 309 86T279 66Z" />
<glyph unicode="&#xd8;" glyph-name="Oslash" horiz-adv-x="624" d="M127 -70Q127 -56 133 -35T149 8Q154 21 160 32Q126 50 99 76Q61 113 40 164T19 279Q17 323 30 361T69 428T130 476Q166 492 209 496Q270 487 326 468L348 530Q351 544 354 565T362 606T375
643T396 664Q405 662 409 657T414 646T416 632T416 619Q416 604 407 565T381 471Q378 460 375 448Q430 423 473 389Q526 347 559 291T596 165Q586 113 555 83T482 37T392 12Q344 5 304 -1Q260 -1 220 9Q218 3 215 -2Q195 -48 180 -76T156 -104Q143 -104 135 -92T127
-70ZM295 52Q309 52 332 54T382 62T436 77T486 100T523 132T538 175Q531 225 508 264T450 333T376 384L358 393Q352 374 345 354Q325 291 303 227T258 103Q250 83 244 65Q269 56 295 52ZM66 284Q65 238 85 198T140 128Q162 107 188 91L306 414L297 417Q258 430
224 434Q190 438 168 434Q137 423 118 405T87 367T71 325T66 284Z" />
<glyph unicode="&#xd9;" glyph-name="Ugrave" horiz-adv-x="585" d="M28 390Q28 399 28 414T30 448T36 486T48 521T68 547T97 557Q108 557 114 551T121 537T116 518T97 500Q88 500 84 487T78 457T76 426T76 408Q76 382 78 348T86 278T103 205T133 140T178 90T241
68Q269 66 306 78T375 112T429 164T452 226V230Q445 272 438 300T425 351T416 398T412 454Q415 500 422 522T438 547T455 536T471 496T481 433T483 355Q484 325 494 289T518 217T544 147T565 88T569 46T548 29Q528 29 518 41T501 67T486 94Q478 106 466 106Q456
106 442 99T411 79T373 53T330 27T285 7T238 -1Q195 -1 163 19T108 73T70 148T45 234T32 318T28 390ZM306 702Q318 692 324 686T336 675T348 664T367 648Q369 646 373 639T377 630Q377 610 370 605Q362 600 348 600Q346 600 343 601T330 609T303 631T258 673Q250
684 244 697T238 717T255 722T306 702Z" />
<glyph unicode="&#xda;" glyph-name="Uacute" horiz-adv-x="585" d="M28 390Q28 399 28 414T30 448T36 486T48 521T68 547T97 557Q108 557 114 551T121 537T116 518T97 500Q88 500 84 487T78 457T76 426T76 408Q76 382 78 348T86 278T103 205T133 140T178 90T241
68Q269 66 306 78T375 112T429 164T452 226V230Q445 272 438 300T425 351T416 398T412 454Q415 500 422 522T438 547T455 536T471 496T481 433T483 355Q484 325 494 289T518 217T544 147T565 88T569 46T548 29Q528 29 518 41T501 67T486 94Q478 106 466 106Q456
106 442 99T411 79T373 53T330 27T285 7T238 -1Q195 -1 163 19T108 73T70 148T45 234T32 318T28 390ZM194 581Q194 602 210 621T248 657T295 689Q317 704 333 716Q354 706 352 692T331 659T282 615T219 557Q204 557 199 562T194 581Z" />
<glyph unicode="&#xdb;" glyph-name="Ucircumflex" horiz-adv-x="585" d="M28 390Q28 399 28 414T30 448T36 486T48 521T68 547T97 557Q108 557 114 551T121 537T116 518T97 500Q88 500 84 487T78 457T76 426T76 408Q76 382 78 348T86 278T103 205T133 140T178
90T241 68Q269 66 306 78T375 112T429 164T452 226V230Q445 272 438 300T425 351T416 398T412 454Q415 500 422 522T438 547T455 536T471 496T481 433T483 355Q484 325 494 289T518 217T544 147T565 88T569 46T548 29Q528 29 518 41T501 67T486 94Q478 106 466
106Q456 106 442 99T411 79T373 53T330 27T285 7T238 -1Q195 -1 163 19T108 73T70 148T45 234T32 318T28 390ZM296 788Q277 764 256 741T215 705T179 695T154 726Q182 752 202 768T235 800T258 837T276 894Q278 902 284 902T297 903Q311 903 318 897T334 875Q340
865 351 853T373 827T395 801T412 780Q419 769 422 762T428 750T431 738T432 722Q432 708 429 700T412 692Q397 692 385 703T359 729T331 760T296 788Z" />
<glyph unicode="&#xdc;" glyph-name="Udieresis" horiz-adv-x="585" d="M28 390Q28 399 28 414T30 448T36 486T48 521T68 547T97 557Q108 557 114 551T121 537T116 518T97 500Q88 500 84 487T78 457T76 426T76 408Q76 382 78 348T86 278T103 205T133 140T178 90T241
68Q269 66 306 78T375 112T429 164T452 226V230Q445 272 438 300T425 351T416 398T412 454Q415 500 422 522T438 547T455 536T471 496T481 433T483 355Q484 325 494 289T518 217T544 147T565 88T569 46T548 29Q528 29 518 41T501 67T486 94Q478 106 466 106Q456
106 442 99T411 79T373 53T330 27T285 7T238 -1Q195 -1 163 19T108 73T70 148T45 234T32 318T28 390ZM161 642Q161 646 166 654T177 671T192 686Q198 692 204 692Q220 692 231 687T250 673T260 655T264 636Q264 630 259 623T246 609T229 598T209 593Q198 593 189
598T174 611T165 627T161 642ZM321 642Q321 646 325 654T337 671T352 686T365 692Q380 692 391 687T409 673T420 655T424 636Q424 630 419 623T407 609T389 598T369 593Q358 593 349 598T334 611T325 627T321 642Z" />
<glyph unicode="&#xdd;" glyph-name="Yacute" horiz-adv-x="413" d="M202 4Q202 7 202 14T202 30T202 46T202 57Q202 100 206 133T218 199T237 264T260 340Q260 342 260 347T261 355Q263 356 244 365T196 390T135 432T75 490T31 564T18 655Q19 655 23 655T33 656T44
658H50Q57 638 69 613T98 562T137 512T181 468T230 437T283 425Q301 465 311 488T328 525T336 544T339 558T341 576T346 609Q346 613 354 617T370 623T386 621T394 609Q394 554 382 505T352 408T314 315T279 219T258 117T260 4Q254 -7 248 -11T232 -16Q222 -16
215 -12T202 4ZM181 713Q181 734 197 753T235 789T282 821Q304 836 320 848Q341 838 339 824T318 791T269 747T206 689Q191 689 186 694T181 713Z" />
<glyph unicode="&#xde;" glyph-name="Thorn" horiz-adv-x="509" d="M117 611Q119 601 119 576T116 520T112 456T109 395T109 350Q110 332 114 334Q132 334 149 340T187 346Q217 346 251 341T318 324T383 296T438 255T476 202T490 136Q490 90 468 63T410 21T334
3Q292 -1 256 -1Q245 -1 226 5T187 20T148 36T123 46L135 -160L80 -138L58 308Q58 311 57 326T55 365T53 416T51 473T50 529T51 578T54 611T58 623L117 611ZM125 218Q115 174 130 142T175 90T243 61T320 58T388 82Q420 101 434 134Q434 161 422 183T389 222T344
251T292 272T239 284T193 289Q160 289 143 270T125 218Z" />
<glyph unicode="&#xdf;" glyph-name="germandbls" horiz-adv-x="605" d="M154 -137Q152 -136 137 -134T105 -128T75 -118T64 -101Q80 -56 86 -4T91 103T82 216T66 328T49 436T36 533T33 614T45 674T79 708T140 710Q159 710 184 706T236 694T289 674T337 645T372
609Q385 590 385 566Q385 540 374 518T350 479T326 448T315 422Q315 420 335 411T385 384T450 342T515 287T566 221T586 145Q586 117 568 98T521 65T455 44T382 32T312 27Q278 26 256 26Q248 26 241 27T230 33T226 50T230 83Q250 83 279 83T341 82T404 85T461 97T502
120T518 158Q518 207 493 239T429 295T345 333T262 362T198 391T172 427Q172 438 183 444T212 456T250 466T288 482T317 509T329 552Q329 574 317 591T287 620T247 638T206 644Q178 644 148 638T96 614L154 -137Z" />
<glyph unicode="&#xe0;" glyph-name="agrave" horiz-adv-x="518" d="M19 169Q20 186 29 208T57 251T105 288T173 312T263 313T376 283Q376 284 376 293L375 302Q375 328 360 355T322 403T271 438T219 452Q209 452 202 449T187 442T174 434T158 430Q156 430 156
431Q155 432 154 433Q152 435 149 438T145 442Q145 460 151 473T169 494T195 506T226 511Q266 507 302 487T369 435T423 364T461 280T482 192Q488 146 483 106Q482 106 477 106T466 107T456 109L451 110Q430 157 404 186T353 231T305 254T269 264Q254 264 234 262T191
255T147 242T107 221T79 193T68 154Q68 130 87 114T133 87T188 72T233 68Q261 68 288 71T341 78T394 85T446 88Q448 88 453 88T463 88T473 87T480 87Q488 84 489 78T490 66Q490 60 478 53T445 39T401 25T354 12T312 4T284 0Q242 0 195 7T109 32T45 84T19 169ZM240
642Q252 632 258 626T270 615T282 604T301 588Q303 586 307 579T311 570Q311 550 304 545Q296 540 282 540Q280 540 277 541T264 549T237 571T192 613Q184 624 178 637T172 657T189 662T240 642Z" />
<glyph unicode="&#xe1;" glyph-name="aacute" horiz-adv-x="518" d="M19 169Q20 186 29 208T57 251T105 288T173 312T263 313T376 283Q376 284 376 293L375 302Q375 328 360 355T322 403T271 438T219 452Q209 452 202 449T187 442T174 434T158 430Q156 430 156
431Q155 432 154 433Q152 435 149 438T145 442Q145 460 151 473T169 494T195 506T226 511Q266 507 302 487T369 435T423 364T461 280T482 192Q488 146 483 106Q482 106 477 106T466 107T456 109L451 110Q430 157 404 186T353 231T305 254T269 264Q254 264 234 262T191
255T147 242T107 221T79 193T68 154Q68 130 87 114T133 87T188 72T233 68Q261 68 288 71T341 78T394 85T446 88Q448 88 453 88T463 88T473 87T480 87Q488 84 489 78T490 66Q490 60 478 53T445 39T401 25T354 12T312 4T284 0Q242 0 195 7T109 32T45 84T19 169ZM161
573Q161 594 177 613T215 649T262 681Q284 696 300 708Q321 698 319 684T298 651T249 607T186 549Q171 549 166 554T161 573Z" />
<glyph unicode="&#xe2;" glyph-name="acircumflex" horiz-adv-x="518" d="M19 169Q20 186 29 208T57 251T105 288T173 312T263 313T376 283Q376 284 376 293L375 302Q375 328 360 355T322 403T271 438T219 452Q209 452 202 449T187 442T174 434T158 430Q156 430
156 431Q155 432 154 433Q152 435 149 438T145 442Q145 460 151 473T169 494T195 506T226 511Q266 507 302 487T369 435T423 364T461 280T482 192Q488 146 483 106Q482 106 477 106T466 107T456 109L451 110Q430 157 404 186T353 231T305 254T269 264Q254 264 234
262T191 255T147 242T107 221T79 193T68 154Q68 130 87 114T133 87T188 72T233 68Q261 68 288 71T341 78T394 85T446 88Q448 88 453 88T463 88T473 87T480 87Q488 84 489 78T490 66Q490 60 478 53T445 39T401 25T354 12T312 4T284 0Q242 0 195 7T109 32T45 84T19
169ZM262 634Q243 610 222 587T181 551T145 541T120 572Q148 598 168 614T201 646T224 683T242 740Q244 748 250 748T263 749Q277 749 284 743T300 721Q306 711 317 699T339 673T361 647T378 626Q385 615 388 608T394 596T397 584T398 568Q398 554 395 546T378
538Q363 538 351 549T325 575T297 606T262 634Z" />
<glyph unicode="&#xe3;" glyph-name="atilde" horiz-adv-x="518" d="M19 169Q20 186 29 208T57 251T105 288T173 312T263 313T376 283Q376 284 376 293L375 302Q375 328 360 355T322 403T271 438T219 452Q209 452 202 449T187 442T174 434T158 430Q156 430 156
431Q155 432 154 433Q152 435 149 438T145 442Q145 460 151 473T169 494T195 506T226 511Q266 507 302 487T369 435T423 364T461 280T482 192Q488 146 483 106Q482 106 477 106T466 107T456 109L451 110Q430 157 404 186T353 231T305 254T269 264Q254 264 234 262T191
255T147 242T107 221T79 193T68 154Q68 130 87 114T133 87T188 72T233 68Q261 68 288 71T341 78T394 85T446 88Q448 88 453 88T463 88T473 87T480 87Q488 84 489 78T490 66Q490 60 478 53T445 39T401 25T354 12T312 4T284 0Q242 0 195 7T109 32T45 84T19 169ZM340
603Q314 593 294 598T255 615T218 641T179 666Q151 668 138 657T119 629T114 595T113 569T104 562T77 589Q69 613 72 634T88 671T119 697Q137 708 158 708Q160 709 165 709T183 704T214 690T266 661Q285 650 296 649T323 654L333 657Q339 659 339 661L400 709Q412
708 418 704T427 695T430 685T425 677Q398 655 384 641T362 620T354 611T352 607T350 606T340 603Z" />
<glyph unicode="&#xe4;" glyph-name="adieresis" horiz-adv-x="518" d="M19 169Q20 186 29 208T57 251T105 288T173 312T263 313T376 283Q376 284 376 293L375 302Q375 328 360 355T322 403T271 438T219 452Q209 452 202 449T187 442T174 434T158 430Q156 430
156 431Q155 432 154 433Q152 435 149 438T145 442Q145 460 151 473T169 494T195 506T226 511Q266 507 302 487T369 435T423 364T461 280T482 192Q488 146 483 106Q482 106 477 106T466 107T456 109L451 110Q430 157 404 186T353 231T305 254T269 264Q254 264 234
262T191 255T147 242T107 221T79 193T68 154Q68 130 87 114T133 87T188 72T233 68Q261 68 288 71T341 78T394 85T446 88Q448 88 453 88T463 88T473 87T480 87Q488 84 489 78T490 66Q490 60 478 53T445 39T401 25T354 12T312 4T284 0Q242 0 195 7T109 32T45 84T19
169ZM131 608Q131 612 136 620T147 637T162 652Q168 658 174 658Q190 658 201 653T220 639T230 621T234 602Q234 596 229 589T216 575T199 564T179 559Q168 559 159 564T144 577T135 593T131 608ZM291 608Q291 612 295 620T307 637T322 652T335 658Q350 658 361
653T379 639T390 621T394 602Q394 596 389 589T377 575T359 564T339 559Q328 559 319 564T304 577T295 593T291 608Z" />
<glyph unicode="&#xe5;" glyph-name="aring" horiz-adv-x="518" d="M162 579Q162 601 172 617T198 645T234 662T274 668Q290 668 304 659T328 638T344 611T350 583Q350 563 341 547T318 519T286 502Q281 500 276 499Q290 493 303 486Q339 466 369 435T423 364T461
280T482 192Q488 146 483 106Q482 106 477 106T466 107T455 109L451 110Q430 157 404 186T353 231T305 254T269 264Q254 264 234 262T191 255T147 242T107 221T79 193T68 154Q68 130 87 114T133 87T188 72T233 68Q261 68 288 71T341 78T394 85T446 88H453Q458 88
463 88T473 87H480Q488 84 489 78T490 66Q490 60 478 53T445 39T401 25T354 12T312 4T284 0Q242 0 195 7T109 32T45 84T19 169Q20 186 29 208T57 251T105 288T173 312T263 313T376 283Q376 284 376 293L375 302Q375 328 360 355T322 403T271 438T219 452Q209 452
202 449T187 442T174 434T158 430Q156 430 156 431Q155 432 154 433Q152 435 149 438T145 442Q145 460 151 473T169 494T195 506L201 508Q193 512 187 518Q162 541 162 579ZM194 578Q194 553 209 541T250 528Q257 527 268 531T289 543T307 561T315 584T303 608T266
632Q252 632 239 630T216 621T200 604T194 578Z" />
<glyph unicode="&#xe6;" glyph-name="ae" horiz-adv-x="903" d="M19 169Q20 186 29 208T57 251T105 288T173 312T263 313T376 283Q376 284 376 293L375 302Q375 328 360 355T322 403T271 438T219 452Q209 452 202 449T187 442T174 434T158 430Q156 430 156 431Q155
432 154 433Q152 435 149 438T145 442Q145 460 151 473T169 494T195 506T226 511Q266 507 302 487T369 435T423 363Q426 357 430 352Q445 396 472 428Q502 464 544 485T643 506Q676 502 700 489T740 455T763 407T770 350Q770 314 749 285T695 237T626 207Q588 196
556 196Q544 196 532 196T510 201T494 213T488 237Q488 242 489 245T498 250T518 251T556 245Q570 245 597 254T651 279T699 313T719 352Q719 372 713 391T693 425T663 449T623 457Q588 454 560 438T511 397T480 340T469 275V257Q479 225 482 191Q485 169 485 147Q490
135 498 124Q513 102 540 84T610 55T714 40L892 52Q876 30 852 16T801 -7T746 -19T695 -23Q637 -23 586 -5T496 49L486 58Q483 54 478 52Q465 45 445 39T401 25T354 12T312 4T284 0Q242 0 195 7T109 32T45 84T19 169ZM404 186Q378 215 353 231T305 254T269 264Q254
264 234 262T191 255T147 242T107 221T79 193T68 154Q68 130 87 114T133 87T188 72T233 68Q261 68 288 71T341 78T394 85T446 88H453Q457 88 461 87Q446 110 434 134Q428 146 424 158Q414 174 404 186Z" />
<glyph unicode="&#xe7;" glyph-name="ccedilla" horiz-adv-x="460" d="M129 -208Q135 -203 140 -202T153 -201Q169 -201 184 -210T213 -231T240 -251T269 -260Q285 -260 299 -260T323 -258T337 -243T343 -207Q344 -184 336 -171T313 -151T282 -140T245 -134T208
-124T176 -105T154 -70T144 -14Q145 6 148 17Q114 30 87 52Q55 80 37 122T19 223Q19 267 36 308T82 382T151 433T234 452Q254 452 276 448T319 433T352 407T365 365Q365 361 363 349T356 325T347 304T337 294Q337 341 311 372T235 404Q197 404 167 388T117 346T87
288T76 221Q76 175 91 145T132 97T192 69T264 57T340 55T413 58Q416 58 423 54T433 49V46Q433 44 433 44T434 43Q434 32 423 24T396 11T361 4T324 1T291 -1H271Q226 -1 188 7Q192 -3 193 -12Q195 -22 190 -27Q190 -59 205 -72T243 -92T293 -101T343 -114T381 -146T397
-212Q397 -236 384 -254T352 -283T310 -300T266 -306Q237 -306 218 -298T185 -276T158 -245T129 -208Z" />
<glyph unicode="&#xe8;" glyph-name="egrave" horiz-adv-x="528" d="M19 268Q19 320 34 367T79 451T151 508T250 530Q283 526 307 512T347 478T370 430Q376 404 376 374Q376 338 355 309T302 261T233 231T164 220Q152 220 140 220T117 224T101 236T95 260Q95 265
96 268T105 273T126 274Q140 272 164 268Q178 268 204 277T258 302T306 336T326 375Q326 395 320 414T300 449T270 473T230 480Q195 477 167 461T118 420T87 363T76 298Q76 272 77 246T84 195T105 147T147 107T217 78T321 63L500 75Q484 53 460 39T408 17T353 4T302
0Q244 0 193 19T103 72T42 156T19 268ZM219 660Q231 650 237 644T249 633T261 622T280 606Q282 604 286 597T290 588Q290 568 283 563Q275 558 261 558Q259 558 256 559T243 567T216 589T171 631Q163 642 157 655T151 675T168 680T219 660Z" />
<glyph unicode="&#xe9;" glyph-name="eacute" horiz-adv-x="528" d="M19 268Q19 320 34 367T79 451T151 508T250 530Q283 526 307 512T347 478T370 430Q376 404 376 374Q376 338 355 309T302 261T233 231T164 220Q152 220 140 220T117 224T101 236T95 260Q95 265
96 268T105 273T126 274Q140 272 164 268Q178 268 204 277T258 302T306 336T326 375Q326 395 320 414T300 449T270 473T230 480Q195 477 167 461T118 420T87 363T76 298Q76 272 77 246T84 195T105 147T147 107T217 78T321 63L500 75Q484 53 460 39T408 17T353 4T302
0Q244 0 193 19T103 72T42 156T19 268ZM148 584Q148 605 164 624T202 660T249 692Q271 707 287 719Q308 709 306 695T285 662T236 618T173 560Q158 560 153 565T148 584Z" />
<glyph unicode="&#xea;" glyph-name="ecircumflex" horiz-adv-x="528" d="M19 268Q19 320 34 367T79 451T151 508T250 530Q283 526 307 512T347 478T370 430Q376 404 376 374Q376 338 355 309T302 261T233 231T164 220Q152 220 140 220T117 224T101 236T95 260Q95
265 96 268T105 273T126 274Q140 272 164 268Q178 268 204 277T258 302T306 336T326 375Q326 395 320 414T300 449T270 473T230 480Q195 477 167 461T118 420T87 363T76 298Q76 272 77 246T84 195T105 147T147 107T217 78T321 63L500 75Q484 53 460 39T408 17T353
4T302 0Q244 0 193 19T103 72T42 156T19 268ZM267 634Q248 610 227 587T186 551T150 541T125 572Q153 598 173 614T206 646T229 683T247 740Q249 748 255 748T268 749Q282 749 289 743T305 721Q311 711 322 699T344 673T366 647T383 626Q390 615 393 608T399 596T402
584T403 568Q403 554 400 546T383 538Q368 538 356 549T330 575T302 606T267 634Z" />
<glyph unicode="&#xeb;" glyph-name="edieresis" horiz-adv-x="528" d="M19 268Q19 320 34 367T79 451T151 508T250 530Q283 526 307 512T347 478T370 430Q376 404 376 374Q376 338 355 309T302 261T233 231T164 220Q152 220 140 220T117 224T101 236T95 260Q95
265 96 268T105 273T126 274Q140 272 164 268Q178 268 204 277T258 302T306 336T326 375Q326 395 320 414T300 449T270 473T230 480Q195 477 167 461T118 420T87 363T76 298Q76 272 77 246T84 195T105 147T147 107T217 78T321 63L500 75Q484 53 460 39T408 17T353
4T302 0Q244 0 193 19T103 72T42 156T19 268ZM111 595Q111 599 116 607T127 624T142 639Q148 645 154 645Q170 645 181 640T200 626T210 608T214 589Q214 583 209 576T196 562T179 551T159 546Q148 546 139 551T124 564T115 580T111 595ZM271 595Q271 599 275 607T287
624T302 639T315 645Q330 645 341 640T359 626T370 608T374 589Q374 583 369 576T357 562T339 551T319 546Q308 546 299 551T284 564T275 580T271 595Z" />
<glyph unicode="&#xec;" glyph-name="igrave" horiz-adv-x="179" d="M63 346V361Q63 372 63 384T64 406V422Q60 453 82 453Q92 453 99 448T112 433Q109 381 116 333T133 237T151 141T160 41Q160 27 152 13T126 -1Q113 -1 104 21T87 78T75 155T68 235T64 304T63
346ZM84 590Q96 580 102 574T114 563T126 551Q133 546 145 536Q147 534 150 527T154 517Q154 497 147 493T126 488Q124 488 121 489T108 497T81 518T36 560Q28 571 21 584T16 604T33 610T84 590Z" />
<glyph unicode="&#xed;" glyph-name="iacute" horiz-adv-x="179" d="M63 346V361Q63 372 63 384T64 406V422Q60 453 82 453Q92 453 99 448T112 433Q109 381 116 333T133 237T151 141T160 41Q160 27 152 13T126 -1Q113 -1 104 21T87 78T75 155T68 235T64 304T63
346ZM-11 505Q-11 526 5 545T43 581T88 613T128 640Q149 630 147 616T125 583T76 539T14 481Q-1 481 -6 486T-11 505Z" />
<glyph unicode="&#xee;" glyph-name="icircumflex" horiz-adv-x="179" d="M63 346V361Q63 372 63 384T64 406V422Q60 453 82 453Q92 453 99 448T112 433Q109 381 116 333T133 237T151 141T160 41Q160 27 152 13T126 -1Q113 -1 104 21T87 78T75 155T68 235T64 304T63
346ZM93 634Q74 610 53 587T12 551T-24 541T-49 572Q-21 598 -1 614T32 646T55 683T74 740Q76 748 82 748T94 749Q108 749 115 743T131 721Q137 711 148 699T170 673T192 647T209 626Q216 615 220 608T225 596T228 584T229 568Q229 554 227 546T209 538T182 549T156
575T127 606T93 634Z" />
<glyph unicode="&#xef;" glyph-name="idieresis" horiz-adv-x="179" d="M63 346V361Q63 372 63 384T64 406V422Q60 453 82 453Q92 453 99 448T112 433Q109 381 116 333T133 237T151 141T160 41Q160 27 152 13T126 -1Q113 -1 104 21T87 78T75 155T68 235T64 304T63
346ZM110 548Q110 552 114 560T126 577T141 592T154 598Q169 598 180 593T198 579T209 561T213 542Q213 536 208 529T196 515T178 504Q168 499 158 499Q147 499 138 504T122 517T113 533T110 548ZM-50 548Q-50 552 -45 560T-34 577T-20 592T-7 598Q9 598 20 593T39
579T49 561T53 542Q53 536 48 529T35 515T18 504T-2 499Q-13 499 -22 504T-38 517T-47 533T-50 548Z" />
<glyph unicode="&#xf0;" glyph-name="eth" horiz-adv-x="417" d="M412 446Q414 442 406 433T386 415T359 400T332 393Q348 371 361 344T383 289T397 232T403 179Q403 143 394 109T366 47T315 4T241 -13Q203 -13 165 -5T95 21T44 68T24 139Q24 174 37 203T72 254T126
287T194 299Q213 299 228 299T257 297T286 292T320 281V286Q320 306 307 330T274 379Q255 373 237 364T202 346T172 333T149 331T134 348T129 390Q135 388 148 393T177 405T206 417T230 421Q216 431 198 443T162 465T128 482Q110 488 100 488H96Q92 487 85 483T70
475T56 466Q48 462 46 462Q40 462 36 466T30 475T26 487T24 499Q24 511 32 519T51 532T74 540T96 541Q124 539 148 533T193 517T234 490Q255 472 276 448Q297 446 312 452T340 467T361 481T378 488T394 480T412 446ZM356 160Q359 185 346 203T308 233T252 251T187
257Q171 257 152 247T116 220T88 185T77 150Q77 119 91 100T126 68T174 52Q200 47 226 47Q277 51 311 77T356 160Z" />
<glyph unicode="&#xf1;" glyph-name="ntilde" horiz-adv-x="471" d="M29 390Q29 399 35 401T50 404Q56 404 58 401T62 394T65 387T72 383Q86 383 106 394T149 418T199 442T252 453Q286 453 314 436T365 389T404 324T431 251T447 178T452 116Q452 107 451 89T446
53T434 22T414 8Q412 8 407 8T397 10T389 14T385 20Q394 97 385 164T356 283T307 364T245 394Q214 394 187 384T140 355T109 309T97 250T103 187T116 124T130 60T136 -4Q108 -4 89 19T59 78T41 159T32 247T29 329T29 390ZM299 536Q273 526 253 531T214 548T177
574T138 599Q110 601 97 590T78 562T73 528T72 502T63 495T36 522Q28 546 31 567T47 604T78 630Q96 641 117 641Q119 642 124 642T142 637T173 623T225 594Q244 583 255 582T282 587L292 590Q298 592 298 594L359 642Q371 641 377 637T386 628T389 618T384 610Q357
588 343 574T321 553T313 544T311 540T309 539T299 536Z" />
<glyph unicode="&#xf2;" glyph-name="ograve" horiz-adv-x="499" d="M19 204Q19 259 43 300T106 369T193 410T291 424Q317 424 339 415T382 389T419 351T446 306T464 260T470 214Q470 163 450 123T396 56T319 14T231 -1Q185 -1 147 13T80 54T35 118T19 204ZM68
212Q68 181 79 153T111 103T160 70T220 57Q237 55 261 62T310 84T357 119T395 164T413 215T405 268T359 319T268 365Q235 365 200 356T135 327T87 279T68 212ZM261 548Q273 538 279 532T291 521T303 510T322 494Q324 492 328 485T332 476Q332 456 325 451Q317 446
303 446Q301 446 298 447T285 455T258 477T213 519Q205 530 199 543T193 563T210 568T261 548Z" />
<glyph unicode="&#xf3;" glyph-name="oacute" horiz-adv-x="499" d="M19 204Q19 259 43 300T106 369T193 410T291 424Q317 424 339 415T382 389T419 351T446 306T464 260T470 214Q470 163 450 123T396 56T319 14T231 -1Q185 -1 147 13T80 54T35 118T19 204ZM68
212Q68 181 79 153T111 103T160 70T220 57Q237 55 261 62T310 84T357 119T395 164T413 215T405 268T359 319T268 365Q235 365 200 356T135 327T87 279T68 212ZM157 485Q157 506 173 525T211 561T258 593Q280 608 296 620Q317 610 315 596T294 563T245 519T182 461Q167
461 162 466T157 485Z" />
<glyph unicode="&#xf4;" glyph-name="ocircumflex" horiz-adv-x="499" d="M19 204Q19 259 43 300T106 369T193 410T291 424Q317 424 339 415T382 389T419 351T446 306T464 260T470 214Q470 163 450 123T396 56T319 14T231 -1Q185 -1 147 13T80 54T35 118T19 204ZM68
212Q68 181 79 153T111 103T160 70T220 57Q237 55 261 62T310 84T357 119T395 164T413 215T405 268T359 319T268 365Q235 365 200 356T135 327T87 279T68 212ZM244 816Q225 792 204 769T163 733T127 723T102 754Q130 780 150 796T183 828T206 865T224 922Q226 930
232 930T245 931Q259 931 266 925T282 903Q288 893 299 881T321 855T343 829T360 808Q367 797 370 790T376 778T379 766T380 750Q380 736 377 728T360 720Q345 720 333 731T307 757T279 788T244 816Z" />
<glyph unicode="&#xf5;" glyph-name="otilde" horiz-adv-x="499" d="M19 204Q19 259 43 300T106 369T193 410T291 424Q317 424 339 415T382 389T419 351T446 306T464 260T470 214Q470 163 450 123T396 56T319 14T231 -1Q185 -1 147 13T80 54T35 118T19 204ZM68
212Q68 181 79 153T111 103T160 70T220 57Q237 55 261 62T310 84T357 119T395 164T413 215T405 268T359 319T268 365Q235 365 200 356T135 327T87 279T68 212ZM346 449Q320 439 300 444T261 461T224 487T185 512Q157 514 144 503T125 475T120 441T119 415T110 408T83
435Q75 459 78 480T94 517T125 543Q143 554 164 554Q166 555 171 555T189 550T220 536T272 507Q291 496 302 495T329 500L339 503Q345 505 345 507L406 555Q418 554 424 550T433 541T436 531T431 523Q404 501 390 487T368 466T360 457T358 453T356 452T346 449Z"
/>
<glyph unicode="&#xf6;" glyph-name="odieresis" horiz-adv-x="499" d="M19 204Q19 259 43 300T106 369T193 410T291 424Q317 424 339 415T382 389T419 351T446 306T464 260T470 214Q470 163 450 123T396 56T319 14T231 -1Q185 -1 147 13T80 54T35 118T19 204ZM68
212Q68 181 79 153T111 103T160 70T220 57Q237 55 261 62T310 84T357 119T395 164T413 215T405 268T359 319T268 365Q235 365 200 356T135 327T87 279T68 212ZM118 488Q118 492 123 500T134 517T149 532Q155 538 161 538Q177 538 188 533T207 519T217 501T221 482Q221
476 216 469T203 455T186 444T166 439Q155 439 146 444T131 457T122 473T118 488ZM278 488Q278 492 282 500T294 517T309 532T322 538Q337 538 348 533T366 519T377 501T381 482Q381 476 376 469T364 455T346 444T326 439Q315 439 306 444T291 457T282 473T278
488Z" />
<glyph unicode="&#xf7;" glyph-name="divide" horiz-adv-x="344" d="M149 100Q149 112 158 119T178 126Q190 126 193 119T197 100Q197 86 192 81T171 76Q149 75 149 100ZM148 322Q148 330 150 338T163 346Q172 346 180 340T195 326T205 307Q207 297 205 288Q205
286 198 279T187 268Q185 267 185 268H182Q174 268 168 274T157 288T150 306T148 322ZM210 500Q224 500 240 499T270 495T293 483T302 460Q302 441 283 441Q261 441 243 446T201 451Q172 451 154 449T119 443T85 437T37 434Q37 463 50 476T84 493T132 497T186 499H189Q192
499 196 499T204 500H210Z" />
<glyph unicode="&#xf8;" glyph-name="oslash" horiz-adv-x="499" d="M57 21Q56 29 64 42Q69 50 75 58Q48 82 34 118Q18 156 19 204Q19 259 43 300T106 369T193 410T291 424Q307 424 322 421Q324 428 328 436Q334 449 343 459T368 472Q378 470 383 468T390 461T392
453T391 444Q392 435 380 410Q377 403 373 396Q376 392 382 388Q402 372 418 351T446 306T464 260T470 214Q470 163 450 123T396 56T319 14T231 -1Q185 0 146 14Q134 18 124 22Q120 19 118 17Q100 0 91 0Q76 0 67 7T57 21ZM220 57Q237 55 261 62T310 84T357 119T395
164T413 215T404 268Q392 296 358 320Q350 327 340 332Q326 308 309 281Q286 242 260 203Q234 164 208 127Q184 94 164 68Q190 58 220 57ZM68 212Q68 181 79 153T111 103L112 101L124 112L290 357Q280 361 268 365Q235 365 200 356T135 327T87 279T68 212Z" />
<glyph unicode="&#xf9;" glyph-name="ugrave" horiz-adv-x="514" d="M384 145Q361 132 345 114T311 79T274 50T221 38Q185 38 156 53T105 95T66 155T39 224T23 294T17 357Q9 411 20 441T46 480T73 477T76 433Q74 429 73 421T71 403T69 386T68 375Q68 354 72 326T84
266T106 205T137 150T178 111T230 96Q248 96 271 113T314 155T349 206T364 250Q364 260 364 283T365 332T365 381T364 413Q370 423 377 428T394 434Q406 434 414 418T427 377T434 323T437 267T439 220T442 192Q447 172 456 147T475 99T491 56T498 26Q498 11 490
8T468 5Q452 5 445 13T434 33T428 61T422 92T409 122T384 145ZM201 671Q213 661 219 655T231 644T243 633T262 617Q264 615 268 608T272 599Q272 579 265 574Q257 569 243 569Q241 569 238 570T225 578T198 600T153 642Q145 653 139 666T133 686T150 691T201 671Z"
/>
<glyph unicode="&#xfa;" glyph-name="uacute" horiz-adv-x="514" d="M384 145Q361 132 345 114T311 79T274 50T221 38Q185 38 156 53T105 95T66 155T39 224T23 294T17 357Q9 411 20 441T46 480T73 477T76 433Q74 429 73 421T71 403T69 386T68 375Q68 354 72 326T84
266T106 205T137 150T178 111T230 96Q248 96 271 113T314 155T349 206T364 250Q364 260 364 283T365 332T365 381T364 413Q370 423 377 428T394 434Q406 434 414 418T427 377T434 323T437 267T439 220T442 192Q447 172 456 147T475 99T491 56T498 26Q498 11 490
8T468 5Q452 5 445 13T434 33T428 61T422 92T409 122T384 145ZM162 560Q162 581 178 600T216 636T263 668Q285 683 301 695Q322 685 320 671T299 638T250 594T187 536Q172 536 167 541T162 560Z" />
<glyph unicode="&#xfb;" glyph-name="ucircumflex" horiz-adv-x="514" d="M384 145Q361 132 345 114T311 79T274 50T221 38Q185 38 156 53T105 95T66 155T39 224T23 294T17 357Q9 411 20 441T46 480T73 477T76 433Q74 429 73 421T71 403T69 386T68 375Q68 354
72 326T84 266T106 205T137 150T178 111T230 96Q248 96 271 113T314 155T349 206T364 250Q364 260 364 283T365 332T365 381T364 413Q370 423 377 428T394 434Q406 434 414 418T427 377T434 323T437 267T439 220T442 192Q447 172 456 147T475 99T491 56T498 26Q498
11 490 8T468 5Q452 5 445 13T434 33T428 61T422 92T409 122T384 145ZM260 634Q241 610 220 587T179 551T143 541T118 572Q146 598 166 614T199 646T222 683T240 740Q242 748 248 748T261 749Q275 749 282 743T298 721Q304 711 315 699T337 673T359 647T376 626Q383
615 386 608T392 596T395 584T396 568Q396 554 393 546T376 538Q361 538 349 549T323 575T295 606T260 634Z" />
<glyph unicode="&#xfc;" glyph-name="udieresis" horiz-adv-x="514" d="M384 145Q361 132 345 114T311 79T274 50T221 38Q185 38 156 53T105 95T66 155T39 224T23 294T17 357Q9 411 20 441T46 480T73 477T76 433Q74 429 73 421T71 403T69 386T68 375Q68 354 72
326T84 266T106 205T137 150T178 111T230 96Q248 96 271 113T314 155T349 206T364 250Q364 260 364 283T365 332T365 381T364 413Q370 423 377 428T394 434Q406 434 414 418T427 377T434 323T437 267T439 220T442 192Q447 172 456 147T475 99T491 56T498 26Q498
11 490 8T468 5Q452 5 445 13T434 33T428 61T422 92T409 122T384 145ZM101 574Q101 578 106 586T117 603T132 618Q138 624 144 624Q160 624 171 619T190 605T200 587T204 568Q204 562 199 555T186 541T169 530T149 525Q138 525 129 530T114 543T105 559T101 574ZM261
574Q261 578 265 586T277 603T292 618T305 624Q320 624 331 619T349 605T360 587T364 568Q364 562 359 555T347 541T329 530T309 525Q298 525 289 530T274 543T265 559T261 574Z" />
<glyph unicode="&#xfd;" glyph-name="yacute" horiz-adv-x="499" d="M46 -312Q46 -305 46 -299T48 -288T54 -280Q60 -278 68 -278Q83 -295 106 -321T160 -373T223 -417T290 -436Q318 -435 338 -422T372 -386T395 -336T409 -279T417 -223T423 -176Q425 -166 427
-143T432 -91T436 -31T436 25T428 67T410 84Q393 84 374 74T335 52T293 29T252 19Q214 19 183 34T125 75T79 133T46 203T26 275T19 343Q19 350 18 366T18 399T27 429T49 442Q53 442 55 426T61 385T70 326T85 259T107 192T139 134T184 92T245 76Q267 76 291 85T336
110T376 144Q394 164 404 183Q404 187 403 202T401 236T399 279T397 322T396 358T395 377Q397 438 404 451T421 443T442 369T462 248T477 96T482 -68T472 -228T441 -364T386 -461T302 -500Q282 -500 255 -493T199 -472T144 -441T95 -402T60 -358T46 -312ZM155 552Q155
573 171 592T209 628T256 660Q278 675 294 687Q315 677 313 663T292 630T243 586T180 528Q165 528 160 533T155 552Z" />
<glyph unicode="&#xfe;" glyph-name="thorn" horiz-adv-x="533" d="M37 188Q37 200 37 226T38 286T39 355T43 423T50 478Q52 501 58 509L107 521L80 319Q112 342 156 357T248 377T343 376T427 347T488 285T512 188Q512 148 497 122T456 81T399 61T334 56Q312 56
280 56T215 57T150 66T96 86Q94 43 94 10T93 -53T93 -115T95 -185L94 -188V-190Q92 -192 86 -192T71 -190T54 -187T41 -188Q31 -134 29 -77T28 32T33 124T37 188ZM106 229Q104 209 102 189T98 146Q122 142 151 137T208 127T261 118T304 114Q320 114 346 117T396
128T437 151T454 190Q454 224 439 249T400 291T346 316T286 325Q282 325 267 323T231 316T189 305T149 289T118 268T106 241V229Z" />
<glyph unicode="&#xff;" glyph-name="ydieresis" horiz-adv-x="499" d="M46 -312Q46 -305 46 -299T48 -288T54 -280Q60 -278 68 -278Q83 -295 106 -321T160 -373T223 -417T290 -436Q318 -435 338 -422T372 -386T395 -336T409 -279T417 -223T423 -176Q425 -166
427 -143T432 -91T436 -31T436 25T428 67T410 84Q393 84 374 74T335 52T293 29T252 19Q214 19 183 34T125 75T79 133T46 203T26 275T19 343Q19 350 18 366T18 399T27 429T49 442Q53 442 55 426T61 385T70 326T85 259T107 192T139 134T184 92T245 76Q267 76 291
85T336 110T376 144Q394 164 404 183Q404 187 403 202T401 236T399 279T397 322T396 358T395 377Q397 438 404 451T421 443T442 369T462 248T477 96T482 -68T472 -228T441 -364T386 -461T302 -500Q282 -500 255 -493T199 -472T144 -441T95 -402T60 -358T46 -312ZM104
550Q104 554 109 562T120 579T135 594Q141 600 147 600Q163 600 174 595T193 581T203 563T207 544Q207 538 202 531T189 517T172 506T152 501Q141 501 132 506T117 519T108 535T104 550ZM264 550Q264 554 268 562T280 579T295 594T308 600Q323 600 334 595T352
581T363 563T367 544Q367 538 362 531T350 517T332 506T312 501Q301 501 292 506T277 519T268 535T264 550Z" />
<glyph unicode="&#x2013;" glyph-name="endash" horiz-adv-x="294" d="M188 326Q202 326 218 325T248 320T271 306T280 278Q280 256 261 256Q239 256 221 262T179 268Q150 268 132 265T97 258T63 251T15 247Q15 282 28 297T62 317T110 322T164 325H167Q170 325
174 325T182 326H188Z" />
<glyph unicode="&#x2014;" glyph-name="emdash" horiz-adv-x="525" d="M398 325Q412 325 429 324T459 319T482 305T491 277Q490 256 472 256Q450 256 432 261T390 267Q370 267 341 266T276 262T203 257T130 252T64 249T15 247Q15 270 36 284T92 306T168 317T250
321T324 322T376 324Q377 324 385 324T398 325Z" />
<glyph unicode="&#x2018;" glyph-name="quoteleft" horiz-adv-x="105" d="M20 712Q20 718 20 722T22 730T28 738T38 748Q49 742 57 727T71 693T80 650T85 604T87 562T88 531Q88 517 86 508Q84 499 68 499Q55 499 47 514T33 551T25 601T21 652T20 692V712Z" />
<glyph unicode="&#x2019;" glyph-name="quoteright" horiz-adv-x="105" d="M20 712Q20 718 20 722T22 730T28 738T38 748Q49 742 57 727T71 693T80 650T85 604T87 562T88 531Q88 517 86 508Q84 499 68 499Q55 499 47 514T33 551T25 601T21 652T20 692V712Z" />
<glyph unicode="&#x201a;" glyph-name="quotesinglbase" horiz-adv-x="105" d="M24 182Q24 188 24 192T26 199T32 207T43 218Q54 212 62 197T76 162T85 118T90 72T92 31T92 0Q92 -14 90 -23T72 -32Q59 -32 51 -17T37 21T29 71T25 122T24 162V182Z" />
<glyph unicode="&#x201c;" glyph-name="quotedblleft" horiz-adv-x="240" d="M154 548Q152 582 150 610T147 663T146 714T145 768V806Q146 808 149 812L154 817H157L159 818Q172 818 181 799T196 752T205 691T210 628T212 577T212 552V518Q210 515 203 508Q196
502 193 500L190 499H188Q181 499 176 506T165 522T157 538T154 548ZM10 778Q13 786 18 787T30 788Q40 788 48 774T63 736T76 684T89 628T102 576T116 538Q110 526 104 522T87 518Q73 518 62 534T43 575T28 631T18 690T13 743T10 778Z" />
<glyph unicode="&#x201d;" glyph-name="quotedblright" horiz-adv-x="240" d="M154 548Q152 582 150 610T147 663T146 714T145 768V806Q146 808 149 812L154 817H157L159 818Q172 818 181 799T196 752T205 691T210 628T212 577T212 552V518Q210 515 203 508Q196
502 193 500L190 499H188Q181 499 176 506T165 522T157 538T154 548ZM10 778Q13 786 18 787T30 788Q40 788 48 774T63 736T76 684T89 628T102 576T116 538Q110 526 104 522T87 518Q73 518 62 534T43 575T28 631T18 690T13 743T10 778Z" />
<glyph unicode="&#x201e;" glyph-name="quotedblbase" horiz-adv-x="350" d="M219 -81Q217 -47 215 -19T212 35T210 85T209 140V178Q210 180 214 183T219 188H221L224 189Q237 189 245 171T260 124T269 62T274 -1T276 -51T277 -76V-110Q275 -114 268 -121T257
-129Q257 -129 255 -130H252Q245 -130 240 -123T230 -107T222 -91T219 -81ZM74 150Q77 158 82 159T94 160Q104 160 112 145T128 107T141 56T154 0T166 -52T181 -91Q175 -102 169 -106T152 -110Q138 -110 127 -94T108 -53T93 3T83 63T77 115T74 150Z" />
<glyph unicode="&#x2022;" glyph-name="bullet" horiz-adv-x="350" d="M107 264Q107 273 115 289T136 321T160 350Q174 362 182 362Q209 362 228 352T260 325T279 289T286 254Q286 242 277 227T254 199T223 176T189 167Q169 167 155 178T129 204T113 236T107 264Z" />
<glyph unicode="&#x2039;" glyph-name="guilsinglleft" horiz-adv-x="499" d="M77 183Q79 184 93 194T130 220T181 256T237 296T292 334T337 364Q347 372 360 380T388 396T416 410T442 422Q444 420 448 417T457 409T466 400T471 394Q471 393 459 384T428 363T387
335T344 306T308 282T289 268Q267 253 243 239T194 208T147 173T106 134Q108 130 121 126T152 117T190 110T229 103T261 98T279 96Q292 94 318 90T370 78T415 57T435 24Q435 0 409 0Q399 0 389 4T368 12T347 22T327 29Q319 31 299 33L252 38Q225 41 194 45T131
53T73 64T29 78T5 95T10 116L77 183Z" />
<glyph unicode="&#x203a;" glyph-name="guilsinglright" horiz-adv-x="413" d="M28 34Q30 43 47 58T90 92T147 132T209 175T265 217T307 256T324 288Q326 302 308 308Q290 309 264 314T208 330T148 354T93 383T51 413T29 442Q29 443 29 446T28 452Q28 465 38 468Q46
472 58 472Q74 472 85 465T107 449T128 429T154 413Q206 393 266 374T385 346Q401 341 403 332T405 310Q409 292 403 277T386 250T362 226T337 202Q332 198 309 181T256 141T191 94T127 48T77 13T52 -1Q35 -1 32 9T28 34Z" />
</font>
</defs>
</svg>
